G04 (created by PCBNEW (2013-mar-13)-testing) date Sat 11 May 2013 09:23:07 PM PDT*
%MOIN*%
G04 Gerber Fmt 3.4, Leading zero omitted, Abs format*
%FSLAX34Y34*%
G01*
G70*
G90*
G04 APERTURE LIST*
%ADD10C,0.000787*%
%ADD11C,0.012000*%
%ADD12C,0.005000*%
%ADD13C,0.004700*%
%ADD14C,0.015000*%
%ADD15C,0.010000*%
%ADD16C,0.006000*%
%ADD17C,0.008000*%
%ADD18C,0.011250*%
%ADD19C,0.011300*%
%ADD20C,0.011800*%
%ADD21C,0.007500*%
G04 APERTURE END LIST*
G54D10*
G54D11*
X84249Y-41785D02*
X84221Y-41823D01*
X84135Y-41861D01*
X84078Y-41861D01*
X83992Y-41823D01*
X83935Y-41747D01*
X83907Y-41671D01*
X83878Y-41519D01*
X83878Y-41404D01*
X83907Y-41252D01*
X83935Y-41176D01*
X83992Y-41100D01*
X84078Y-41061D01*
X84135Y-41061D01*
X84221Y-41100D01*
X84249Y-41138D01*
X84592Y-41861D02*
X84535Y-41823D01*
X84507Y-41785D01*
X84478Y-41709D01*
X84478Y-41480D01*
X84507Y-41404D01*
X84535Y-41366D01*
X84592Y-41328D01*
X84678Y-41328D01*
X84735Y-41366D01*
X84764Y-41404D01*
X84792Y-41480D01*
X84792Y-41709D01*
X84764Y-41785D01*
X84735Y-41823D01*
X84678Y-41861D01*
X84592Y-41861D01*
X85049Y-41328D02*
X85049Y-42128D01*
X85049Y-41366D02*
X85107Y-41328D01*
X85221Y-41328D01*
X85278Y-41366D01*
X85307Y-41404D01*
X85335Y-41480D01*
X85335Y-41709D01*
X85307Y-41785D01*
X85278Y-41823D01*
X85221Y-41861D01*
X85107Y-41861D01*
X85049Y-41823D01*
X85535Y-41328D02*
X85678Y-41861D01*
X85821Y-41328D02*
X85678Y-41861D01*
X85621Y-42052D01*
X85592Y-42090D01*
X85535Y-42128D01*
X86049Y-41861D02*
X86049Y-41328D01*
X86049Y-41480D02*
X86078Y-41404D01*
X86107Y-41366D01*
X86164Y-41328D01*
X86221Y-41328D01*
X86421Y-41861D02*
X86421Y-41328D01*
X86421Y-41061D02*
X86392Y-41100D01*
X86421Y-41138D01*
X86450Y-41100D01*
X86421Y-41061D01*
X86421Y-41138D01*
X86964Y-41328D02*
X86964Y-41976D01*
X86935Y-42052D01*
X86907Y-42090D01*
X86849Y-42128D01*
X86764Y-42128D01*
X86707Y-42090D01*
X86964Y-41823D02*
X86907Y-41861D01*
X86792Y-41861D01*
X86735Y-41823D01*
X86707Y-41785D01*
X86678Y-41709D01*
X86678Y-41480D01*
X86707Y-41404D01*
X86735Y-41366D01*
X86792Y-41328D01*
X86907Y-41328D01*
X86964Y-41366D01*
X87249Y-41861D02*
X87249Y-41061D01*
X87507Y-41861D02*
X87507Y-41442D01*
X87478Y-41366D01*
X87421Y-41328D01*
X87335Y-41328D01*
X87278Y-41366D01*
X87249Y-41404D01*
X87707Y-41328D02*
X87935Y-41328D01*
X87792Y-41061D02*
X87792Y-41747D01*
X87821Y-41823D01*
X87878Y-41861D01*
X87935Y-41861D01*
X88764Y-42166D02*
X88735Y-42128D01*
X88678Y-42014D01*
X88649Y-41938D01*
X88621Y-41823D01*
X88592Y-41633D01*
X88592Y-41480D01*
X88621Y-41290D01*
X88649Y-41176D01*
X88678Y-41100D01*
X88735Y-40985D01*
X88764Y-40947D01*
X89335Y-41785D02*
X89307Y-41823D01*
X89221Y-41861D01*
X89164Y-41861D01*
X89078Y-41823D01*
X89021Y-41747D01*
X88992Y-41671D01*
X88964Y-41519D01*
X88964Y-41404D01*
X88992Y-41252D01*
X89021Y-41176D01*
X89078Y-41100D01*
X89164Y-41061D01*
X89221Y-41061D01*
X89307Y-41100D01*
X89335Y-41138D01*
X89535Y-42166D02*
X89564Y-42128D01*
X89621Y-42014D01*
X89649Y-41938D01*
X89678Y-41823D01*
X89707Y-41633D01*
X89707Y-41480D01*
X89678Y-41290D01*
X89649Y-41176D01*
X89621Y-41100D01*
X89564Y-40985D01*
X89535Y-40947D01*
X90421Y-41138D02*
X90449Y-41100D01*
X90507Y-41061D01*
X90649Y-41061D01*
X90707Y-41100D01*
X90735Y-41138D01*
X90764Y-41214D01*
X90764Y-41290D01*
X90735Y-41404D01*
X90392Y-41861D01*
X90764Y-41861D01*
X91135Y-41061D02*
X91192Y-41061D01*
X91250Y-41100D01*
X91278Y-41138D01*
X91307Y-41214D01*
X91335Y-41366D01*
X91335Y-41557D01*
X91307Y-41709D01*
X91278Y-41785D01*
X91250Y-41823D01*
X91192Y-41861D01*
X91135Y-41861D01*
X91078Y-41823D01*
X91050Y-41785D01*
X91021Y-41709D01*
X90992Y-41557D01*
X90992Y-41366D01*
X91021Y-41214D01*
X91050Y-41138D01*
X91078Y-41100D01*
X91135Y-41061D01*
X91907Y-41861D02*
X91564Y-41861D01*
X91735Y-41861D02*
X91735Y-41061D01*
X91678Y-41176D01*
X91621Y-41252D01*
X91564Y-41290D01*
X92107Y-41061D02*
X92478Y-41061D01*
X92278Y-41366D01*
X92364Y-41366D01*
X92421Y-41404D01*
X92450Y-41442D01*
X92478Y-41519D01*
X92478Y-41709D01*
X92450Y-41785D01*
X92421Y-41823D01*
X92364Y-41861D01*
X92192Y-41861D01*
X92135Y-41823D01*
X92107Y-41785D01*
X93850Y-41442D02*
X93935Y-41480D01*
X93964Y-41519D01*
X93992Y-41595D01*
X93992Y-41709D01*
X93964Y-41785D01*
X93935Y-41823D01*
X93878Y-41861D01*
X93650Y-41861D01*
X93650Y-41061D01*
X93850Y-41061D01*
X93907Y-41100D01*
X93935Y-41138D01*
X93964Y-41214D01*
X93964Y-41290D01*
X93935Y-41366D01*
X93907Y-41404D01*
X93850Y-41442D01*
X93650Y-41442D01*
X94250Y-41861D02*
X94250Y-41328D01*
X94250Y-41480D02*
X94278Y-41404D01*
X94307Y-41366D01*
X94364Y-41328D01*
X94421Y-41328D01*
X94564Y-41328D02*
X94707Y-41861D01*
X94850Y-41328D02*
X94707Y-41861D01*
X94650Y-42052D01*
X94621Y-42090D01*
X94564Y-42128D01*
X95335Y-41861D02*
X95335Y-41442D01*
X95307Y-41366D01*
X95250Y-41328D01*
X95135Y-41328D01*
X95078Y-41366D01*
X95335Y-41823D02*
X95278Y-41861D01*
X95135Y-41861D01*
X95078Y-41823D01*
X95050Y-41747D01*
X95050Y-41671D01*
X95078Y-41595D01*
X95135Y-41557D01*
X95278Y-41557D01*
X95335Y-41519D01*
X95621Y-41328D02*
X95621Y-41861D01*
X95621Y-41404D02*
X95650Y-41366D01*
X95707Y-41328D01*
X95792Y-41328D01*
X95850Y-41366D01*
X95878Y-41442D01*
X95878Y-41861D01*
X96621Y-41861D02*
X96621Y-41061D01*
X96621Y-41442D02*
X96964Y-41442D01*
X96964Y-41861D02*
X96964Y-41061D01*
X97507Y-41328D02*
X97507Y-41861D01*
X97250Y-41328D02*
X97250Y-41747D01*
X97278Y-41823D01*
X97335Y-41861D01*
X97421Y-41861D01*
X97478Y-41823D01*
X97507Y-41785D01*
X98050Y-41328D02*
X98050Y-41976D01*
X98021Y-42052D01*
X97992Y-42090D01*
X97935Y-42128D01*
X97850Y-42128D01*
X97792Y-42090D01*
X98050Y-41823D02*
X97992Y-41861D01*
X97878Y-41861D01*
X97821Y-41823D01*
X97792Y-41785D01*
X97764Y-41709D01*
X97764Y-41480D01*
X97792Y-41404D01*
X97821Y-41366D01*
X97878Y-41328D01*
X97992Y-41328D01*
X98050Y-41366D01*
X98335Y-41861D02*
X98335Y-41061D01*
X98592Y-41861D02*
X98592Y-41442D01*
X98564Y-41366D01*
X98507Y-41328D01*
X98421Y-41328D01*
X98364Y-41366D01*
X98335Y-41404D01*
X99107Y-41823D02*
X99050Y-41861D01*
X98935Y-41861D01*
X98878Y-41823D01*
X98850Y-41747D01*
X98850Y-41442D01*
X98878Y-41366D01*
X98935Y-41328D01*
X99050Y-41328D01*
X99107Y-41366D01*
X99135Y-41442D01*
X99135Y-41519D01*
X98850Y-41595D01*
X99364Y-41823D02*
X99421Y-41861D01*
X99535Y-41861D01*
X99592Y-41823D01*
X99621Y-41747D01*
X99621Y-41709D01*
X99592Y-41633D01*
X99535Y-41595D01*
X99450Y-41595D01*
X99392Y-41557D01*
X99364Y-41480D01*
X99364Y-41442D01*
X99392Y-41366D01*
X99450Y-41328D01*
X99535Y-41328D01*
X99592Y-41366D01*
X84235Y-28633D02*
X84521Y-28633D01*
X84178Y-28861D02*
X84378Y-28061D01*
X84578Y-28861D01*
X85035Y-28328D02*
X85035Y-29128D01*
X85035Y-28823D02*
X84978Y-28861D01*
X84864Y-28861D01*
X84807Y-28823D01*
X84778Y-28785D01*
X84750Y-28709D01*
X84750Y-28480D01*
X84778Y-28404D01*
X84807Y-28366D01*
X84864Y-28328D01*
X84978Y-28328D01*
X85035Y-28366D01*
X85578Y-28328D02*
X85578Y-28861D01*
X85321Y-28328D02*
X85321Y-28747D01*
X85350Y-28823D01*
X85407Y-28861D01*
X85492Y-28861D01*
X85550Y-28823D01*
X85578Y-28785D01*
X86121Y-28861D02*
X86121Y-28442D01*
X86092Y-28366D01*
X86035Y-28328D01*
X85921Y-28328D01*
X85864Y-28366D01*
X86121Y-28823D02*
X86064Y-28861D01*
X85921Y-28861D01*
X85864Y-28823D01*
X85835Y-28747D01*
X85835Y-28671D01*
X85864Y-28595D01*
X85921Y-28557D01*
X86064Y-28557D01*
X86121Y-28519D01*
X86407Y-28861D02*
X86407Y-28328D01*
X86407Y-28480D02*
X86435Y-28404D01*
X86464Y-28366D01*
X86521Y-28328D01*
X86578Y-28328D01*
X86778Y-28861D02*
X86778Y-28328D01*
X86778Y-28061D02*
X86750Y-28100D01*
X86778Y-28138D01*
X86807Y-28100D01*
X86778Y-28061D01*
X86778Y-28138D01*
X87321Y-28328D02*
X87321Y-28861D01*
X87064Y-28328D02*
X87064Y-28747D01*
X87092Y-28823D01*
X87149Y-28861D01*
X87235Y-28861D01*
X87292Y-28823D01*
X87321Y-28785D01*
X87607Y-28861D02*
X87607Y-28328D01*
X87607Y-28404D02*
X87635Y-28366D01*
X87692Y-28328D01*
X87778Y-28328D01*
X87835Y-28366D01*
X87864Y-28442D01*
X87864Y-28861D01*
X87864Y-28442D02*
X87892Y-28366D01*
X87949Y-28328D01*
X88035Y-28328D01*
X88092Y-28366D01*
X88121Y-28442D01*
X88121Y-28861D01*
X89207Y-28785D02*
X89178Y-28823D01*
X89092Y-28861D01*
X89035Y-28861D01*
X88949Y-28823D01*
X88892Y-28747D01*
X88864Y-28671D01*
X88835Y-28519D01*
X88835Y-28404D01*
X88864Y-28252D01*
X88892Y-28176D01*
X88949Y-28100D01*
X89035Y-28061D01*
X89092Y-28061D01*
X89178Y-28100D01*
X89207Y-28138D01*
X89549Y-28861D02*
X89492Y-28823D01*
X89464Y-28785D01*
X89435Y-28709D01*
X89435Y-28480D01*
X89464Y-28404D01*
X89492Y-28366D01*
X89549Y-28328D01*
X89635Y-28328D01*
X89692Y-28366D01*
X89721Y-28404D01*
X89749Y-28480D01*
X89749Y-28709D01*
X89721Y-28785D01*
X89692Y-28823D01*
X89635Y-28861D01*
X89549Y-28861D01*
X90007Y-28328D02*
X90007Y-28861D01*
X90007Y-28404D02*
X90035Y-28366D01*
X90092Y-28328D01*
X90178Y-28328D01*
X90235Y-28366D01*
X90264Y-28442D01*
X90264Y-28861D01*
X90464Y-28328D02*
X90692Y-28328D01*
X90549Y-28061D02*
X90549Y-28747D01*
X90578Y-28823D01*
X90635Y-28861D01*
X90692Y-28861D01*
X90892Y-28861D02*
X90892Y-28328D01*
X90892Y-28480D02*
X90921Y-28404D01*
X90949Y-28366D01*
X91007Y-28328D01*
X91064Y-28328D01*
X91349Y-28861D02*
X91292Y-28823D01*
X91264Y-28785D01*
X91235Y-28709D01*
X91235Y-28480D01*
X91264Y-28404D01*
X91292Y-28366D01*
X91349Y-28328D01*
X91435Y-28328D01*
X91492Y-28366D01*
X91521Y-28404D01*
X91549Y-28480D01*
X91549Y-28709D01*
X91521Y-28785D01*
X91492Y-28823D01*
X91435Y-28861D01*
X91349Y-28861D01*
X91892Y-28861D02*
X91835Y-28823D01*
X91807Y-28747D01*
X91807Y-28061D01*
X92778Y-28442D02*
X92864Y-28480D01*
X92892Y-28519D01*
X92921Y-28595D01*
X92921Y-28709D01*
X92892Y-28785D01*
X92864Y-28823D01*
X92807Y-28861D01*
X92578Y-28861D01*
X92578Y-28061D01*
X92778Y-28061D01*
X92835Y-28100D01*
X92864Y-28138D01*
X92892Y-28214D01*
X92892Y-28290D01*
X92864Y-28366D01*
X92835Y-28404D01*
X92778Y-28442D01*
X92578Y-28442D01*
X93264Y-28861D02*
X93207Y-28823D01*
X93178Y-28785D01*
X93150Y-28709D01*
X93150Y-28480D01*
X93178Y-28404D01*
X93207Y-28366D01*
X93264Y-28328D01*
X93350Y-28328D01*
X93407Y-28366D01*
X93435Y-28404D01*
X93464Y-28480D01*
X93464Y-28709D01*
X93435Y-28785D01*
X93407Y-28823D01*
X93350Y-28861D01*
X93264Y-28861D01*
X93978Y-28861D02*
X93978Y-28442D01*
X93950Y-28366D01*
X93892Y-28328D01*
X93778Y-28328D01*
X93721Y-28366D01*
X93978Y-28823D02*
X93921Y-28861D01*
X93778Y-28861D01*
X93721Y-28823D01*
X93692Y-28747D01*
X93692Y-28671D01*
X93721Y-28595D01*
X93778Y-28557D01*
X93921Y-28557D01*
X93978Y-28519D01*
X94264Y-28861D02*
X94264Y-28328D01*
X94264Y-28480D02*
X94292Y-28404D01*
X94321Y-28366D01*
X94378Y-28328D01*
X94435Y-28328D01*
X94892Y-28861D02*
X94892Y-28061D01*
X94892Y-28823D02*
X94835Y-28861D01*
X94721Y-28861D01*
X94664Y-28823D01*
X94635Y-28785D01*
X94607Y-28709D01*
X94607Y-28480D01*
X94635Y-28404D01*
X94664Y-28366D01*
X94721Y-28328D01*
X94835Y-28328D01*
X94892Y-28366D01*
X95578Y-28328D02*
X95721Y-28861D01*
X95864Y-28328D01*
X96407Y-28861D02*
X96064Y-28861D01*
X96235Y-28861D02*
X96235Y-28061D01*
X96178Y-28176D01*
X96121Y-28252D01*
X96064Y-28290D01*
X96664Y-28785D02*
X96692Y-28823D01*
X96664Y-28861D01*
X96635Y-28823D01*
X96664Y-28785D01*
X96664Y-28861D01*
X97064Y-28061D02*
X97121Y-28061D01*
X97178Y-28100D01*
X97207Y-28138D01*
X97235Y-28214D01*
X97264Y-28366D01*
X97264Y-28557D01*
X97235Y-28709D01*
X97207Y-28785D01*
X97178Y-28823D01*
X97121Y-28861D01*
X97064Y-28861D01*
X97007Y-28823D01*
X96978Y-28785D01*
X96950Y-28709D01*
X96921Y-28557D01*
X96921Y-28366D01*
X96950Y-28214D01*
X96978Y-28138D01*
X97007Y-28100D01*
X97064Y-28061D01*
X84250Y-36500D02*
X84250Y-36200D01*
X84250Y-36200D02*
X84650Y-36200D01*
X84650Y-36200D02*
X84650Y-33800D01*
X84650Y-33800D02*
X84250Y-33800D01*
X84250Y-33800D02*
X84250Y-33500D01*
X84250Y-33800D02*
X83850Y-33800D01*
X83850Y-33800D02*
X83850Y-36200D01*
X83850Y-36200D02*
X84250Y-36200D01*
X84650Y-36000D02*
X83850Y-36000D01*
X83850Y-35900D02*
X84650Y-35900D01*
G54D12*
X88250Y-39750D02*
G75*
G03X88250Y-39750I-1250J0D01*
G74*
G01*
G54D13*
X99380Y-32260D02*
X98120Y-32260D01*
X99380Y-29740D02*
X98120Y-29740D01*
X98118Y-31353D02*
X98118Y-32253D01*
X99382Y-32253D02*
X99382Y-31353D01*
X99382Y-30646D02*
X99382Y-29746D01*
X98118Y-29746D02*
X98118Y-30646D01*
X102380Y-32260D02*
X101120Y-32260D01*
X102380Y-29740D02*
X101120Y-29740D01*
X101118Y-31353D02*
X101118Y-32253D01*
X102382Y-32253D02*
X102382Y-31353D01*
X102382Y-30646D02*
X102382Y-29746D01*
X101118Y-29746D02*
X101118Y-30646D01*
X100880Y-32260D02*
X99620Y-32260D01*
X100880Y-29740D02*
X99620Y-29740D01*
X99618Y-31353D02*
X99618Y-32253D01*
X100882Y-32253D02*
X100882Y-31353D01*
X100882Y-30646D02*
X100882Y-29746D01*
X99618Y-29746D02*
X99618Y-30646D01*
G54D12*
X88001Y-32250D02*
G75*
G03X88001Y-32250I-1001J0D01*
G74*
G01*
G54D14*
X102400Y-35250D02*
G75*
G03X102400Y-35250I-900J0D01*
G74*
G01*
G54D12*
X85403Y-39250D02*
G75*
G03X85403Y-39250I-1653J0D01*
G74*
G01*
G54D14*
X85400Y-31000D02*
G75*
G03X85400Y-31000I-900J0D01*
G74*
G01*
X89500Y-34500D02*
X89500Y-34500D01*
X89500Y-34500D02*
X90000Y-34500D01*
X90000Y-34500D02*
X90000Y-35500D01*
X90000Y-35500D02*
X89500Y-35500D01*
X89500Y-34000D02*
X98500Y-34000D01*
X98500Y-34000D02*
X98500Y-36000D01*
X98500Y-36000D02*
X89500Y-36000D01*
X89500Y-36000D02*
X89500Y-34000D01*
X95500Y-30000D02*
X89500Y-30000D01*
X89500Y-30000D02*
X89500Y-32000D01*
X89500Y-32000D02*
X95500Y-32000D01*
X95500Y-31500D02*
X95000Y-31500D01*
X95000Y-31500D02*
X95000Y-30500D01*
X95000Y-30500D02*
X95500Y-30500D01*
X95500Y-32000D02*
X95500Y-30000D01*
X95500Y-38000D02*
X89500Y-38000D01*
X89500Y-38000D02*
X89500Y-40000D01*
X89500Y-40000D02*
X95500Y-40000D01*
X95500Y-39500D02*
X95000Y-39500D01*
X95000Y-39500D02*
X95000Y-38500D01*
X95000Y-38500D02*
X95500Y-38500D01*
X95500Y-40000D02*
X95500Y-38000D01*
G54D11*
X82750Y-33500D02*
X82750Y-33100D01*
X82750Y-33100D02*
X82350Y-33100D01*
X82350Y-33100D02*
X82350Y-29900D01*
X82350Y-29900D02*
X83150Y-29900D01*
X83150Y-29900D02*
X83150Y-33100D01*
X83150Y-33100D02*
X82750Y-33100D01*
X82550Y-33100D02*
X82350Y-32900D01*
X82750Y-29500D02*
X82750Y-29900D01*
X102000Y-40500D02*
X101600Y-40500D01*
X101600Y-40500D02*
X101600Y-40900D01*
X101600Y-40900D02*
X98400Y-40900D01*
X98400Y-40900D02*
X98400Y-40100D01*
X98400Y-40100D02*
X101600Y-40100D01*
X101600Y-40100D02*
X101600Y-40500D01*
X101600Y-40700D02*
X101400Y-40900D01*
X98000Y-40500D02*
X98400Y-40500D01*
G54D15*
X86500Y-38000D02*
X86500Y-37500D01*
X86500Y-37500D02*
X87500Y-37500D01*
X87500Y-37500D02*
X87500Y-38000D01*
X86000Y-38000D02*
X86000Y-34000D01*
X86000Y-34000D02*
X88000Y-34000D01*
X88000Y-34000D02*
X88000Y-38000D01*
X88000Y-38000D02*
X86000Y-38000D01*
G54D16*
X82250Y-34500D02*
X83250Y-34500D01*
X83250Y-34500D02*
X83250Y-36500D01*
X83250Y-36500D02*
X82250Y-36500D01*
X82250Y-36500D02*
X82250Y-34500D01*
X96500Y-38000D02*
X97500Y-38000D01*
X97500Y-38000D02*
X97500Y-40000D01*
X97500Y-40000D02*
X96500Y-40000D01*
X96500Y-40000D02*
X96500Y-38000D01*
X96500Y-30000D02*
X97500Y-30000D01*
X97500Y-30000D02*
X97500Y-32000D01*
X97500Y-32000D02*
X96500Y-32000D01*
X96500Y-32000D02*
X96500Y-30000D01*
X85500Y-30000D02*
X85500Y-29000D01*
X85500Y-29000D02*
X88500Y-29000D01*
X88500Y-29000D02*
X88500Y-30000D01*
X88500Y-30000D02*
X85500Y-30000D01*
X86500Y-29000D02*
X86500Y-30000D01*
G54D17*
X102000Y-36500D02*
X102000Y-39500D01*
X100000Y-39500D02*
X100000Y-36500D01*
X100000Y-36500D02*
X102000Y-36500D01*
X102000Y-39500D02*
X100000Y-39500D01*
G54D16*
X101061Y-34007D02*
X98964Y-34007D01*
X98964Y-33998D02*
X98964Y-32501D01*
X98964Y-32492D02*
X101061Y-32492D01*
X101070Y-32492D02*
X101070Y-33998D01*
G54D17*
X84430Y-35295D02*
X84030Y-35295D01*
X84030Y-35199D01*
X84050Y-35142D01*
X84088Y-35104D01*
X84126Y-35085D01*
X84202Y-35066D01*
X84259Y-35066D01*
X84335Y-35085D01*
X84373Y-35104D01*
X84411Y-35142D01*
X84430Y-35199D01*
X84430Y-35295D01*
X84430Y-34685D02*
X84430Y-34914D01*
X84430Y-34799D02*
X84030Y-34799D01*
X84088Y-34838D01*
X84126Y-34876D01*
X84145Y-34914D01*
X86941Y-39160D02*
X86925Y-39182D01*
X86875Y-39203D01*
X86841Y-39203D01*
X86791Y-39182D01*
X86758Y-39139D01*
X86741Y-39096D01*
X86725Y-39010D01*
X86725Y-38946D01*
X86741Y-38860D01*
X86758Y-38817D01*
X86791Y-38775D01*
X86841Y-38753D01*
X86875Y-38753D01*
X86925Y-38775D01*
X86941Y-38796D01*
X87075Y-38796D02*
X87091Y-38775D01*
X87125Y-38753D01*
X87208Y-38753D01*
X87241Y-38775D01*
X87258Y-38796D01*
X87275Y-38839D01*
X87275Y-38882D01*
X87258Y-38946D01*
X87058Y-39203D01*
X87275Y-39203D01*
X86408Y-40296D02*
X86425Y-40275D01*
X86458Y-40253D01*
X86541Y-40253D01*
X86575Y-40275D01*
X86591Y-40296D01*
X86608Y-40339D01*
X86608Y-40382D01*
X86591Y-40446D01*
X86391Y-40703D01*
X86608Y-40703D01*
X86741Y-40296D02*
X86758Y-40275D01*
X86791Y-40253D01*
X86875Y-40253D01*
X86908Y-40275D01*
X86925Y-40296D01*
X86941Y-40339D01*
X86941Y-40382D01*
X86925Y-40446D01*
X86725Y-40703D01*
X86941Y-40703D01*
X87158Y-40253D02*
X87191Y-40253D01*
X87225Y-40275D01*
X87241Y-40296D01*
X87258Y-40339D01*
X87275Y-40425D01*
X87275Y-40532D01*
X87258Y-40617D01*
X87241Y-40660D01*
X87225Y-40682D01*
X87191Y-40703D01*
X87158Y-40703D01*
X87125Y-40682D01*
X87108Y-40660D01*
X87091Y-40617D01*
X87075Y-40532D01*
X87075Y-40425D01*
X87091Y-40339D01*
X87108Y-40296D01*
X87125Y-40275D01*
X87158Y-40253D01*
X87575Y-40403D02*
X87575Y-40703D01*
X87425Y-40403D02*
X87425Y-40639D01*
X87441Y-40682D01*
X87475Y-40703D01*
X87525Y-40703D01*
X87558Y-40682D01*
X87575Y-40660D01*
G54D18*
X88328Y-39782D02*
X88671Y-39782D01*
X88500Y-39953D02*
X88500Y-39610D01*
G54D19*
G54D12*
X98546Y-31124D02*
X98546Y-30848D01*
X98612Y-30848D01*
X98651Y-30862D01*
X98677Y-30888D01*
X98690Y-30914D01*
X98704Y-30967D01*
X98704Y-31006D01*
X98690Y-31059D01*
X98677Y-31085D01*
X98651Y-31111D01*
X98612Y-31124D01*
X98546Y-31124D01*
X98809Y-30875D02*
X98822Y-30862D01*
X98848Y-30848D01*
X98914Y-30848D01*
X98940Y-30862D01*
X98953Y-30875D01*
X98966Y-30901D01*
X98966Y-30927D01*
X98953Y-30967D01*
X98796Y-31124D01*
X98966Y-31124D01*
X98276Y-28624D02*
X98276Y-28348D01*
X98434Y-28624D01*
X98434Y-28348D01*
X98566Y-28624D02*
X98566Y-28440D01*
X98566Y-28348D02*
X98552Y-28362D01*
X98566Y-28375D01*
X98579Y-28362D01*
X98566Y-28348D01*
X98566Y-28375D01*
X98815Y-28440D02*
X98815Y-28664D01*
X98802Y-28690D01*
X98789Y-28703D01*
X98763Y-28716D01*
X98723Y-28716D01*
X98697Y-28703D01*
X98815Y-28611D02*
X98789Y-28624D01*
X98736Y-28624D01*
X98710Y-28611D01*
X98697Y-28598D01*
X98684Y-28572D01*
X98684Y-28493D01*
X98697Y-28467D01*
X98710Y-28454D01*
X98736Y-28440D01*
X98789Y-28440D01*
X98815Y-28454D01*
X98947Y-28624D02*
X98947Y-28348D01*
X99065Y-28624D02*
X99065Y-28480D01*
X99052Y-28454D01*
X99026Y-28440D01*
X98986Y-28440D01*
X98960Y-28454D01*
X98947Y-28467D01*
X99157Y-28440D02*
X99262Y-28440D01*
X99196Y-28348D02*
X99196Y-28585D01*
X99210Y-28611D01*
X99236Y-28624D01*
X99262Y-28624D01*
G54D20*
X98792Y-29478D02*
X98792Y-29021D01*
X99021Y-29249D02*
X98564Y-29249D01*
G54D12*
X101546Y-31124D02*
X101546Y-30848D01*
X101612Y-30848D01*
X101651Y-30862D01*
X101677Y-30888D01*
X101690Y-30914D01*
X101704Y-30967D01*
X101704Y-31006D01*
X101690Y-31059D01*
X101677Y-31085D01*
X101651Y-31111D01*
X101612Y-31124D01*
X101546Y-31124D01*
X101940Y-30940D02*
X101940Y-31124D01*
X101874Y-30835D02*
X101809Y-31032D01*
X101980Y-31032D01*
X101224Y-28598D02*
X101211Y-28611D01*
X101171Y-28624D01*
X101145Y-28624D01*
X101106Y-28611D01*
X101079Y-28585D01*
X101066Y-28559D01*
X101053Y-28506D01*
X101053Y-28467D01*
X101066Y-28414D01*
X101079Y-28388D01*
X101106Y-28362D01*
X101145Y-28348D01*
X101171Y-28348D01*
X101211Y-28362D01*
X101224Y-28375D01*
X101382Y-28624D02*
X101355Y-28611D01*
X101342Y-28598D01*
X101329Y-28572D01*
X101329Y-28493D01*
X101342Y-28467D01*
X101355Y-28454D01*
X101382Y-28440D01*
X101421Y-28440D01*
X101447Y-28454D01*
X101460Y-28467D01*
X101474Y-28493D01*
X101474Y-28572D01*
X101460Y-28598D01*
X101447Y-28611D01*
X101421Y-28624D01*
X101382Y-28624D01*
X101592Y-28440D02*
X101592Y-28624D01*
X101592Y-28467D02*
X101605Y-28454D01*
X101631Y-28440D01*
X101671Y-28440D01*
X101697Y-28454D01*
X101710Y-28480D01*
X101710Y-28624D01*
X101802Y-28440D02*
X101907Y-28440D01*
X101842Y-28348D02*
X101842Y-28585D01*
X101855Y-28611D01*
X101881Y-28624D01*
X101907Y-28624D01*
X101999Y-28624D02*
X101999Y-28440D01*
X101999Y-28493D02*
X102012Y-28467D01*
X102026Y-28454D01*
X102052Y-28440D01*
X102078Y-28440D01*
X102210Y-28624D02*
X102183Y-28611D01*
X102170Y-28598D01*
X102157Y-28572D01*
X102157Y-28493D01*
X102170Y-28467D01*
X102183Y-28454D01*
X102210Y-28440D01*
X102249Y-28440D01*
X102275Y-28454D01*
X102288Y-28467D01*
X102302Y-28493D01*
X102302Y-28572D01*
X102288Y-28598D01*
X102275Y-28611D01*
X102249Y-28624D01*
X102210Y-28624D01*
X102459Y-28624D02*
X102433Y-28611D01*
X102420Y-28585D01*
X102420Y-28348D01*
G54D20*
X101792Y-29478D02*
X101792Y-29021D01*
X102021Y-29249D02*
X101564Y-29249D01*
G54D12*
X100046Y-31124D02*
X100046Y-30848D01*
X100112Y-30848D01*
X100151Y-30862D01*
X100177Y-30888D01*
X100190Y-30914D01*
X100204Y-30967D01*
X100204Y-31006D01*
X100190Y-31059D01*
X100177Y-31085D01*
X100151Y-31111D01*
X100112Y-31124D01*
X100046Y-31124D01*
X100296Y-30848D02*
X100466Y-30848D01*
X100374Y-30954D01*
X100414Y-30954D01*
X100440Y-30967D01*
X100453Y-30980D01*
X100466Y-31006D01*
X100466Y-31072D01*
X100453Y-31098D01*
X100440Y-31111D01*
X100414Y-31124D01*
X100335Y-31124D01*
X100309Y-31111D01*
X100296Y-31098D01*
X99947Y-28624D02*
X99947Y-28348D01*
X100013Y-28348D01*
X100052Y-28362D01*
X100079Y-28388D01*
X100092Y-28414D01*
X100105Y-28467D01*
X100105Y-28506D01*
X100092Y-28559D01*
X100079Y-28585D01*
X100052Y-28611D01*
X100013Y-28624D01*
X99947Y-28624D01*
X100342Y-28624D02*
X100342Y-28480D01*
X100328Y-28454D01*
X100302Y-28440D01*
X100250Y-28440D01*
X100223Y-28454D01*
X100342Y-28611D02*
X100315Y-28624D01*
X100250Y-28624D01*
X100223Y-28611D01*
X100210Y-28585D01*
X100210Y-28559D01*
X100223Y-28532D01*
X100250Y-28519D01*
X100315Y-28519D01*
X100342Y-28506D01*
X100447Y-28440D02*
X100512Y-28624D01*
X100578Y-28440D02*
X100512Y-28624D01*
X100486Y-28690D01*
X100473Y-28703D01*
X100447Y-28716D01*
G54D20*
X100292Y-29478D02*
X100292Y-29021D01*
X100521Y-29249D02*
X100064Y-29249D01*
G54D12*
X86950Y-31687D02*
X86935Y-31702D01*
X86892Y-31716D01*
X86864Y-31716D01*
X86821Y-31702D01*
X86792Y-31673D01*
X86778Y-31644D01*
X86764Y-31587D01*
X86764Y-31544D01*
X86778Y-31487D01*
X86792Y-31459D01*
X86821Y-31430D01*
X86864Y-31416D01*
X86892Y-31416D01*
X86935Y-31430D01*
X86950Y-31444D01*
X87235Y-31716D02*
X87064Y-31716D01*
X87150Y-31716D02*
X87150Y-31416D01*
X87121Y-31459D01*
X87092Y-31487D01*
X87064Y-31502D01*
X86696Y-32783D02*
X86708Y-32769D01*
X86732Y-32755D01*
X86791Y-32755D01*
X86815Y-32769D01*
X86827Y-32783D01*
X86839Y-32812D01*
X86839Y-32840D01*
X86827Y-32883D01*
X86684Y-33055D01*
X86839Y-33055D01*
X86934Y-32783D02*
X86946Y-32769D01*
X86970Y-32755D01*
X87029Y-32755D01*
X87053Y-32769D01*
X87065Y-32783D01*
X87077Y-32812D01*
X87077Y-32840D01*
X87065Y-32883D01*
X86922Y-33055D01*
X87077Y-33055D01*
X87291Y-32855D02*
X87291Y-33055D01*
X87184Y-32855D02*
X87184Y-33012D01*
X87196Y-33040D01*
X87220Y-33055D01*
X87255Y-33055D01*
X87279Y-33040D01*
X87291Y-33026D01*
G54D21*
X85625Y-32271D02*
X85854Y-32271D01*
X85740Y-32385D02*
X85740Y-32157D01*
G54D17*
X83953Y-39308D02*
X83953Y-39475D01*
X83503Y-39475D01*
X83953Y-39008D02*
X83953Y-39208D01*
X83953Y-39108D02*
X83503Y-39108D01*
X83567Y-39141D01*
X83610Y-39175D01*
X83632Y-39208D01*
G54D18*
X92381Y-35253D02*
X92360Y-35282D01*
X92295Y-35310D01*
X92253Y-35310D01*
X92188Y-35282D01*
X92145Y-35225D01*
X92124Y-35167D01*
X92103Y-35053D01*
X92103Y-34967D01*
X92124Y-34853D01*
X92145Y-34796D01*
X92188Y-34739D01*
X92253Y-34710D01*
X92295Y-34710D01*
X92360Y-34739D01*
X92381Y-34767D01*
X92574Y-35310D02*
X92574Y-34710D01*
X92681Y-34710D01*
X92745Y-34739D01*
X92788Y-34796D01*
X92810Y-34853D01*
X92831Y-34967D01*
X92831Y-35053D01*
X92810Y-35167D01*
X92788Y-35225D01*
X92745Y-35282D01*
X92681Y-35310D01*
X92574Y-35310D01*
X93217Y-34910D02*
X93217Y-35310D01*
X93110Y-34682D02*
X93003Y-35110D01*
X93281Y-35110D01*
X93538Y-34710D02*
X93581Y-34710D01*
X93624Y-34739D01*
X93645Y-34767D01*
X93667Y-34825D01*
X93688Y-34939D01*
X93688Y-35082D01*
X93667Y-35196D01*
X93645Y-35253D01*
X93624Y-35282D01*
X93581Y-35310D01*
X93538Y-35310D01*
X93495Y-35282D01*
X93474Y-35253D01*
X93453Y-35196D01*
X93431Y-35082D01*
X93431Y-34939D01*
X93453Y-34825D01*
X93474Y-34767D01*
X93495Y-34739D01*
X93538Y-34710D01*
X94117Y-35310D02*
X93860Y-35310D01*
X93988Y-35310D02*
X93988Y-34710D01*
X93945Y-34796D01*
X93903Y-34853D01*
X93860Y-34882D01*
X94395Y-34710D02*
X94438Y-34710D01*
X94481Y-34739D01*
X94503Y-34767D01*
X94524Y-34825D01*
X94545Y-34939D01*
X94545Y-35082D01*
X94524Y-35196D01*
X94503Y-35253D01*
X94481Y-35282D01*
X94438Y-35310D01*
X94395Y-35310D01*
X94353Y-35282D01*
X94331Y-35253D01*
X94310Y-35196D01*
X94288Y-35082D01*
X94288Y-34939D01*
X94310Y-34825D01*
X94331Y-34767D01*
X94353Y-34739D01*
X94395Y-34710D01*
X94760Y-35310D02*
X94845Y-35310D01*
X94888Y-35282D01*
X94910Y-35253D01*
X94953Y-35167D01*
X94974Y-35053D01*
X94974Y-34825D01*
X94953Y-34767D01*
X94931Y-34739D01*
X94888Y-34710D01*
X94803Y-34710D01*
X94760Y-34739D01*
X94738Y-34767D01*
X94717Y-34825D01*
X94717Y-34967D01*
X94738Y-35025D01*
X94760Y-35053D01*
X94803Y-35082D01*
X94888Y-35082D01*
X94931Y-35053D01*
X94953Y-35025D01*
X94974Y-34967D01*
X95317Y-34996D02*
X95381Y-35025D01*
X95403Y-35053D01*
X95424Y-35110D01*
X95424Y-35196D01*
X95403Y-35253D01*
X95381Y-35282D01*
X95338Y-35310D01*
X95167Y-35310D01*
X95167Y-34710D01*
X95317Y-34710D01*
X95360Y-34739D01*
X95381Y-34767D01*
X95403Y-34825D01*
X95403Y-34882D01*
X95381Y-34939D01*
X95360Y-34967D01*
X95317Y-34996D01*
X95167Y-34996D01*
G54D11*
G54D18*
X91525Y-31271D02*
X91525Y-30671D01*
X91632Y-30671D01*
X91696Y-30700D01*
X91739Y-30757D01*
X91760Y-30814D01*
X91782Y-30928D01*
X91782Y-31014D01*
X91760Y-31128D01*
X91739Y-31185D01*
X91696Y-31242D01*
X91632Y-31271D01*
X91525Y-31271D01*
X91932Y-30671D02*
X92210Y-30671D01*
X92060Y-30900D01*
X92125Y-30900D01*
X92167Y-30928D01*
X92189Y-30957D01*
X92210Y-31014D01*
X92210Y-31157D01*
X92189Y-31214D01*
X92167Y-31242D01*
X92125Y-31271D01*
X91996Y-31271D01*
X91953Y-31242D01*
X91932Y-31214D01*
X92489Y-30671D02*
X92532Y-30671D01*
X92575Y-30700D01*
X92596Y-30728D01*
X92617Y-30785D01*
X92639Y-30900D01*
X92639Y-31042D01*
X92617Y-31157D01*
X92596Y-31214D01*
X92575Y-31242D01*
X92532Y-31271D01*
X92489Y-31271D01*
X92446Y-31242D01*
X92425Y-31214D01*
X92403Y-31157D01*
X92382Y-31042D01*
X92382Y-30900D01*
X92403Y-30785D01*
X92425Y-30728D01*
X92446Y-30700D01*
X92489Y-30671D01*
X93025Y-30871D02*
X93025Y-31271D01*
X92917Y-30642D02*
X92810Y-31071D01*
X93089Y-31071D01*
X93217Y-30671D02*
X93496Y-30671D01*
X93346Y-30900D01*
X93410Y-30900D01*
X93453Y-30928D01*
X93475Y-30957D01*
X93496Y-31014D01*
X93496Y-31157D01*
X93475Y-31214D01*
X93453Y-31242D01*
X93410Y-31271D01*
X93282Y-31271D01*
X93239Y-31242D01*
X93217Y-31214D01*
G54D19*
G54D18*
X91525Y-39271D02*
X91525Y-38671D01*
X91632Y-38671D01*
X91696Y-38700D01*
X91739Y-38757D01*
X91760Y-38814D01*
X91782Y-38928D01*
X91782Y-39014D01*
X91760Y-39128D01*
X91739Y-39185D01*
X91696Y-39242D01*
X91632Y-39271D01*
X91525Y-39271D01*
X91932Y-38671D02*
X92210Y-38671D01*
X92060Y-38900D01*
X92125Y-38900D01*
X92167Y-38928D01*
X92189Y-38957D01*
X92210Y-39014D01*
X92210Y-39157D01*
X92189Y-39214D01*
X92167Y-39242D01*
X92125Y-39271D01*
X91996Y-39271D01*
X91953Y-39242D01*
X91932Y-39214D01*
X92489Y-38671D02*
X92532Y-38671D01*
X92575Y-38700D01*
X92596Y-38728D01*
X92617Y-38785D01*
X92639Y-38900D01*
X92639Y-39042D01*
X92617Y-39157D01*
X92596Y-39214D01*
X92575Y-39242D01*
X92532Y-39271D01*
X92489Y-39271D01*
X92446Y-39242D01*
X92425Y-39214D01*
X92403Y-39157D01*
X92382Y-39042D01*
X92382Y-38900D01*
X92403Y-38785D01*
X92425Y-38728D01*
X92446Y-38700D01*
X92489Y-38671D01*
X93025Y-38871D02*
X93025Y-39271D01*
X92917Y-38642D02*
X92810Y-39071D01*
X93089Y-39071D01*
X93217Y-38671D02*
X93496Y-38671D01*
X93346Y-38900D01*
X93410Y-38900D01*
X93453Y-38928D01*
X93475Y-38957D01*
X93496Y-39014D01*
X93496Y-39157D01*
X93475Y-39214D01*
X93453Y-39242D01*
X93410Y-39271D01*
X93282Y-39271D01*
X93239Y-39242D01*
X93217Y-39214D01*
G54D19*
G54D17*
X82710Y-32154D02*
X82710Y-32321D01*
X82998Y-32321D02*
X82448Y-32321D01*
X82448Y-32083D01*
X82448Y-31892D02*
X82894Y-31892D01*
X82946Y-31869D01*
X82972Y-31845D01*
X82998Y-31797D01*
X82998Y-31702D01*
X82972Y-31654D01*
X82946Y-31630D01*
X82894Y-31607D01*
X82448Y-31607D01*
X82972Y-31392D02*
X82998Y-31321D01*
X82998Y-31202D01*
X82972Y-31154D01*
X82946Y-31130D01*
X82894Y-31107D01*
X82841Y-31107D01*
X82789Y-31130D01*
X82763Y-31154D01*
X82736Y-31202D01*
X82710Y-31297D01*
X82684Y-31345D01*
X82658Y-31369D01*
X82605Y-31392D01*
X82553Y-31392D01*
X82501Y-31369D01*
X82475Y-31345D01*
X82448Y-31297D01*
X82448Y-31178D01*
X82475Y-31107D01*
X82710Y-30892D02*
X82710Y-30726D01*
X82998Y-30654D02*
X82998Y-30892D01*
X82448Y-30892D01*
X82448Y-30654D01*
X99345Y-40460D02*
X99178Y-40460D01*
X99178Y-40748D02*
X99178Y-40198D01*
X99416Y-40198D01*
X99607Y-40198D02*
X99607Y-40644D01*
X99630Y-40696D01*
X99654Y-40722D01*
X99702Y-40748D01*
X99797Y-40748D01*
X99845Y-40722D01*
X99869Y-40696D01*
X99892Y-40644D01*
X99892Y-40198D01*
X100107Y-40722D02*
X100178Y-40748D01*
X100297Y-40748D01*
X100345Y-40722D01*
X100369Y-40696D01*
X100392Y-40644D01*
X100392Y-40591D01*
X100369Y-40539D01*
X100345Y-40513D01*
X100297Y-40486D01*
X100202Y-40460D01*
X100154Y-40434D01*
X100130Y-40408D01*
X100107Y-40355D01*
X100107Y-40303D01*
X100130Y-40251D01*
X100154Y-40225D01*
X100202Y-40198D01*
X100321Y-40198D01*
X100392Y-40225D01*
X100607Y-40460D02*
X100773Y-40460D01*
X100845Y-40748D02*
X100607Y-40748D01*
X100607Y-40198D01*
X100845Y-40198D01*
X87226Y-37076D02*
X87226Y-37266D01*
X86726Y-37266D01*
X87226Y-36942D02*
X86726Y-36942D01*
X87083Y-36809D01*
X86726Y-36676D01*
X87226Y-36676D01*
X86773Y-36504D02*
X86750Y-36485D01*
X86726Y-36447D01*
X86726Y-36352D01*
X86750Y-36314D01*
X86773Y-36295D01*
X86821Y-36276D01*
X86869Y-36276D01*
X86940Y-36295D01*
X87226Y-36523D01*
X87226Y-36276D01*
X86726Y-35914D02*
X86726Y-36104D01*
X86964Y-36123D01*
X86940Y-36104D01*
X86916Y-36066D01*
X86916Y-35971D01*
X86940Y-35933D01*
X86964Y-35914D01*
X87011Y-35895D01*
X87130Y-35895D01*
X87178Y-35914D01*
X87202Y-35933D01*
X87226Y-35971D01*
X87226Y-36066D01*
X87202Y-36104D01*
X87178Y-36123D01*
X86726Y-35761D02*
X86726Y-35495D01*
X87226Y-35666D01*
X86892Y-35171D02*
X87226Y-35171D01*
X86702Y-35266D02*
X87059Y-35361D01*
X87059Y-35114D01*
X87226Y-34961D02*
X86726Y-34961D01*
X87226Y-34733D01*
X86726Y-34733D01*
G54D16*
X82407Y-36885D02*
X82407Y-36585D01*
X82521Y-36585D01*
X82550Y-36600D01*
X82564Y-36614D01*
X82578Y-36642D01*
X82578Y-36685D01*
X82564Y-36714D01*
X82550Y-36728D01*
X82521Y-36742D01*
X82407Y-36742D01*
X82750Y-36885D02*
X82721Y-36871D01*
X82707Y-36857D01*
X82692Y-36828D01*
X82692Y-36742D01*
X82707Y-36714D01*
X82721Y-36700D01*
X82750Y-36685D01*
X82792Y-36685D01*
X82821Y-36700D01*
X82835Y-36714D01*
X82850Y-36742D01*
X82850Y-36828D01*
X82835Y-36857D01*
X82821Y-36871D01*
X82792Y-36885D01*
X82750Y-36885D01*
X82950Y-36685D02*
X83007Y-36885D01*
X83064Y-36742D01*
X83121Y-36885D01*
X83178Y-36685D01*
X83407Y-36871D02*
X83378Y-36885D01*
X83321Y-36885D01*
X83292Y-36871D01*
X83278Y-36842D01*
X83278Y-36728D01*
X83292Y-36700D01*
X83321Y-36685D01*
X83378Y-36685D01*
X83407Y-36700D01*
X83421Y-36728D01*
X83421Y-36757D01*
X83278Y-36785D01*
X83550Y-36885D02*
X83550Y-36685D01*
X83550Y-36742D02*
X83564Y-36714D01*
X83578Y-36700D01*
X83607Y-36685D01*
X83635Y-36685D01*
X96671Y-37885D02*
X96671Y-37585D01*
X96742Y-37585D01*
X96785Y-37600D01*
X96814Y-37628D01*
X96828Y-37657D01*
X96842Y-37714D01*
X96842Y-37757D01*
X96828Y-37814D01*
X96814Y-37842D01*
X96785Y-37871D01*
X96742Y-37885D01*
X96671Y-37885D01*
X97100Y-37885D02*
X97100Y-37728D01*
X97085Y-37700D01*
X97057Y-37685D01*
X97000Y-37685D01*
X96971Y-37700D01*
X97100Y-37871D02*
X97071Y-37885D01*
X97000Y-37885D01*
X96971Y-37871D01*
X96957Y-37842D01*
X96957Y-37814D01*
X96971Y-37785D01*
X97000Y-37771D01*
X97071Y-37771D01*
X97100Y-37757D01*
X97214Y-37685D02*
X97285Y-37885D01*
X97357Y-37685D02*
X97285Y-37885D01*
X97257Y-37957D01*
X97242Y-37971D01*
X97214Y-37985D01*
X96485Y-32385D02*
X96485Y-32085D01*
X96657Y-32385D01*
X96657Y-32085D01*
X96800Y-32385D02*
X96800Y-32185D01*
X96800Y-32085D02*
X96785Y-32100D01*
X96800Y-32114D01*
X96814Y-32100D01*
X96800Y-32085D01*
X96800Y-32114D01*
X97071Y-32185D02*
X97071Y-32428D01*
X97057Y-32457D01*
X97042Y-32471D01*
X97014Y-32485D01*
X96971Y-32485D01*
X96942Y-32471D01*
X97071Y-32371D02*
X97042Y-32385D01*
X96985Y-32385D01*
X96957Y-32371D01*
X96942Y-32357D01*
X96928Y-32328D01*
X96928Y-32242D01*
X96942Y-32214D01*
X96957Y-32200D01*
X96985Y-32185D01*
X97042Y-32185D01*
X97071Y-32200D01*
X97214Y-32385D02*
X97214Y-32085D01*
X97342Y-32385D02*
X97342Y-32228D01*
X97328Y-32200D01*
X97300Y-32185D01*
X97257Y-32185D01*
X97228Y-32200D01*
X97214Y-32214D01*
X97442Y-32185D02*
X97557Y-32185D01*
X97485Y-32085D02*
X97485Y-32342D01*
X97500Y-32371D01*
X97528Y-32385D01*
X97557Y-32385D01*
X86114Y-30661D02*
X86171Y-30680D01*
X86266Y-30680D01*
X86304Y-30661D01*
X86323Y-30642D01*
X86342Y-30604D01*
X86342Y-30566D01*
X86323Y-30528D01*
X86304Y-30509D01*
X86266Y-30490D01*
X86190Y-30471D01*
X86152Y-30452D01*
X86133Y-30433D01*
X86114Y-30395D01*
X86114Y-30357D01*
X86133Y-30319D01*
X86152Y-30300D01*
X86190Y-30280D01*
X86285Y-30280D01*
X86342Y-30300D01*
X86476Y-30414D02*
X86552Y-30680D01*
X86628Y-30490D01*
X86704Y-30680D01*
X86780Y-30414D01*
X86933Y-30680D02*
X86933Y-30414D01*
X86933Y-30280D02*
X86914Y-30300D01*
X86933Y-30319D01*
X86952Y-30300D01*
X86933Y-30280D01*
X86933Y-30319D01*
X87066Y-30414D02*
X87219Y-30414D01*
X87123Y-30280D02*
X87123Y-30623D01*
X87142Y-30661D01*
X87180Y-30680D01*
X87219Y-30680D01*
X87523Y-30661D02*
X87485Y-30680D01*
X87409Y-30680D01*
X87371Y-30661D01*
X87352Y-30642D01*
X87333Y-30604D01*
X87333Y-30490D01*
X87352Y-30452D01*
X87371Y-30433D01*
X87409Y-30414D01*
X87485Y-30414D01*
X87523Y-30433D01*
X87695Y-30680D02*
X87695Y-30280D01*
X87866Y-30680D02*
X87866Y-30471D01*
X87847Y-30433D01*
X87809Y-30414D01*
X87752Y-30414D01*
X87714Y-30433D01*
X87695Y-30452D01*
G54D17*
X99680Y-39349D02*
X99490Y-39483D01*
X99680Y-39578D02*
X99280Y-39578D01*
X99280Y-39426D01*
X99300Y-39388D01*
X99319Y-39369D01*
X99357Y-39349D01*
X99414Y-39349D01*
X99452Y-39369D01*
X99471Y-39388D01*
X99490Y-39426D01*
X99490Y-39578D01*
X99680Y-39007D02*
X99471Y-39007D01*
X99433Y-39026D01*
X99414Y-39064D01*
X99414Y-39140D01*
X99433Y-39178D01*
X99661Y-39007D02*
X99680Y-39045D01*
X99680Y-39140D01*
X99661Y-39178D01*
X99623Y-39197D01*
X99585Y-39197D01*
X99547Y-39178D01*
X99528Y-39140D01*
X99528Y-39045D01*
X99509Y-39007D01*
X99661Y-38835D02*
X99680Y-38797D01*
X99680Y-38721D01*
X99661Y-38683D01*
X99623Y-38664D01*
X99604Y-38664D01*
X99566Y-38683D01*
X99547Y-38721D01*
X99547Y-38778D01*
X99528Y-38816D01*
X99490Y-38835D01*
X99471Y-38835D01*
X99433Y-38816D01*
X99414Y-38778D01*
X99414Y-38721D01*
X99433Y-38683D01*
X99414Y-38492D02*
X99814Y-38492D01*
X99433Y-38492D02*
X99414Y-38454D01*
X99414Y-38378D01*
X99433Y-38340D01*
X99452Y-38321D01*
X99490Y-38302D01*
X99604Y-38302D01*
X99642Y-38321D01*
X99661Y-38340D01*
X99680Y-38378D01*
X99680Y-38454D01*
X99661Y-38492D01*
X99680Y-38130D02*
X99280Y-38130D01*
X99433Y-38130D02*
X99414Y-38092D01*
X99414Y-38016D01*
X99433Y-37978D01*
X99452Y-37959D01*
X99490Y-37940D01*
X99604Y-37940D01*
X99642Y-37959D01*
X99661Y-37978D01*
X99680Y-38016D01*
X99680Y-38092D01*
X99661Y-38130D01*
X99661Y-37616D02*
X99680Y-37654D01*
X99680Y-37730D01*
X99661Y-37769D01*
X99623Y-37788D01*
X99471Y-37788D01*
X99433Y-37769D01*
X99414Y-37730D01*
X99414Y-37654D01*
X99433Y-37616D01*
X99471Y-37597D01*
X99509Y-37597D01*
X99547Y-37788D01*
X99680Y-37426D02*
X99414Y-37426D01*
X99490Y-37426D02*
X99452Y-37407D01*
X99433Y-37388D01*
X99414Y-37349D01*
X99414Y-37311D01*
X99680Y-37178D02*
X99414Y-37178D01*
X99490Y-37178D02*
X99452Y-37159D01*
X99433Y-37140D01*
X99414Y-37102D01*
X99414Y-37064D01*
X99414Y-36969D02*
X99680Y-36873D01*
X99414Y-36778D02*
X99680Y-36873D01*
X99776Y-36911D01*
X99795Y-36930D01*
X99814Y-36969D01*
X99680Y-36321D02*
X99280Y-36321D01*
X99280Y-36169D01*
X99300Y-36130D01*
X99319Y-36111D01*
X99357Y-36092D01*
X99414Y-36092D01*
X99452Y-36111D01*
X99471Y-36130D01*
X99490Y-36169D01*
X99490Y-36321D01*
X99680Y-35921D02*
X99414Y-35921D01*
X99280Y-35921D02*
X99300Y-35940D01*
X99319Y-35921D01*
X99300Y-35902D01*
X99280Y-35921D01*
X99319Y-35921D01*
G54D12*
X99839Y-34409D02*
X99725Y-34409D01*
X99782Y-34409D02*
X99782Y-34109D01*
X99763Y-34152D01*
X99744Y-34180D01*
X99725Y-34195D01*
X99963Y-34109D02*
X99982Y-34109D01*
X100001Y-34123D01*
X100011Y-34137D01*
X100020Y-34166D01*
X100030Y-34223D01*
X100030Y-34295D01*
X100020Y-34352D01*
X100011Y-34380D01*
X100001Y-34395D01*
X99982Y-34409D01*
X99963Y-34409D01*
X99944Y-34395D01*
X99934Y-34380D01*
X99925Y-34352D01*
X99915Y-34295D01*
X99915Y-34223D01*
X99925Y-34166D01*
X99934Y-34137D01*
X99944Y-34123D01*
X99963Y-34109D01*
X100115Y-34409D02*
X100115Y-34109D01*
X100134Y-34295D02*
X100191Y-34409D01*
X100191Y-34209D02*
X100115Y-34323D01*
M02*
