M48
;DRILL file {Pcbnew (2013-mar-13)-testing} date Sat 11 May 2013 09:23:12 PM PDT
;FORMAT={-:-/ absolute / inch / decimal}
FMAT,2
INCH,TZ
T1C0.025
T2C0.032
T3C0.040
T4C0.120
%
G90
G05
M72
T1
X8.8Y-3.1
X8.975Y-3.7
X9.55Y-3.75
T2
X8.275Y-2.95
X8.275Y-3.35
X8.375Y-3.8266
X8.375Y-4.0234
X8.425Y-3.35
X8.425Y-3.65
X8.55Y-3.45
X8.55Y-3.55
X8.55Y-3.65
X8.55Y-3.75
X8.65Y-3.975
X8.6646Y-3.225
X8.7354Y-3.225
X8.75Y-3.975
X8.85Y-3.45
X8.85Y-3.55
X8.85Y-3.65
X8.85Y-3.75
X9.05Y-2.95
X9.05Y-3.25
X9.05Y-3.35
X9.05Y-3.65
X9.05Y-3.75
X9.05Y-4.05
X9.15Y-2.95
X9.15Y-3.25
X9.15Y-3.35
X9.15Y-3.65
X9.15Y-3.75
X9.15Y-4.05
X9.25Y-2.95
X9.25Y-3.25
X9.25Y-3.35
X9.25Y-3.65
X9.25Y-3.75
X9.25Y-4.05
X9.35Y-2.95
X9.35Y-3.25
X9.35Y-3.35
X9.35Y-3.65
X9.35Y-3.75
X9.35Y-4.05
X9.45Y-2.95
X9.45Y-3.25
X9.45Y-3.35
X9.45Y-3.65
X9.45Y-3.75
X9.45Y-4.05
X9.55Y-3.35
X9.55Y-3.65
X9.65Y-3.35
X9.65Y-3.65
X9.75Y-3.35
X9.75Y-3.65
X9.8Y-4.05
X10.2Y-4.05
T3
X8.275Y-3.5
X8.275Y-3.6
X8.6Y-2.95
X8.7Y-2.95
X8.8Y-2.95
X9.7Y-3.05
X9.7Y-3.15
X9.7Y-3.85
X9.7Y-3.95
X10.05Y-3.7
X10.05Y-3.8
X10.05Y-3.9
X10.15Y-3.7
X10.15Y-3.8
X10.15Y-3.9
T4
X8.45Y-3.1
X10.15Y-3.525
T0
M30
