G04 (created by PCBNEW (2013-mar-13)-testing) date Sat 11 May 2013 09:23:07 PM PDT*
%MOIN*%
G04 Gerber Fmt 3.4, Leading zero omitted, Abs format*
%FSLAX34Y34*%
G01*
G70*
G90*
G04 APERTURE LIST*
%ADD10C,0.000787*%
%ADD11R,0.075000X0.075000*%
%ADD12C,0.075000*%
%ADD13R,0.080000X0.080000*%
%ADD14C,0.080000*%
%ADD15R,0.126300X0.090900*%
%ADD16C,0.180000*%
%ADD17R,0.045591X0.059370*%
G04 APERTURE END LIST*
G54D10*
G54D11*
X84250Y-36500D03*
G54D12*
X84250Y-33500D03*
G54D13*
X87500Y-39750D03*
G54D14*
X86500Y-39750D03*
G54D15*
X98750Y-30213D03*
X98750Y-31787D03*
X101750Y-30213D03*
X101750Y-31787D03*
X100250Y-30213D03*
X100250Y-31787D03*
G54D11*
X86645Y-32250D03*
G54D12*
X87354Y-32250D03*
G54D16*
X101500Y-35250D03*
G54D13*
X83750Y-38265D03*
G54D14*
X83750Y-40234D03*
G54D16*
X84500Y-31000D03*
G54D11*
X90500Y-36500D03*
G54D12*
X91500Y-36500D03*
X92500Y-36500D03*
X93500Y-36500D03*
X94500Y-36500D03*
X95500Y-36500D03*
X96500Y-36500D03*
X97500Y-36500D03*
X97500Y-33500D03*
X96500Y-33500D03*
X95500Y-33500D03*
X94500Y-33500D03*
X93500Y-33500D03*
X92500Y-33500D03*
X91500Y-33500D03*
X90500Y-33500D03*
G54D11*
X94500Y-29500D03*
G54D12*
X93500Y-29500D03*
X92500Y-29500D03*
X91500Y-29500D03*
X90500Y-29500D03*
X90500Y-32500D03*
X91500Y-32500D03*
X92500Y-32500D03*
X93500Y-32500D03*
X94500Y-32500D03*
G54D11*
X94500Y-37500D03*
G54D12*
X93500Y-37500D03*
X92500Y-37500D03*
X91500Y-37500D03*
X90500Y-37500D03*
X90500Y-40500D03*
X91500Y-40500D03*
X92500Y-40500D03*
X93500Y-40500D03*
X94500Y-40500D03*
G54D14*
X82750Y-33500D03*
X82750Y-29500D03*
X102000Y-40500D03*
X98000Y-40500D03*
G54D11*
X88500Y-37500D03*
G54D12*
X88500Y-36500D03*
X88500Y-35500D03*
X88500Y-34500D03*
X85500Y-34500D03*
X85500Y-35500D03*
X85500Y-36500D03*
X85500Y-37500D03*
G54D13*
X82750Y-35000D03*
G54D14*
X82750Y-36000D03*
G54D13*
X97000Y-38500D03*
G54D14*
X97000Y-39500D03*
G54D13*
X97000Y-30500D03*
G54D14*
X97000Y-31500D03*
G54D13*
X86000Y-29500D03*
G54D14*
X87000Y-29500D03*
X88000Y-29500D03*
G54D13*
X101500Y-39000D03*
G54D14*
X100500Y-39000D03*
X101500Y-38000D03*
X100500Y-38000D03*
X101500Y-37000D03*
X100500Y-37000D03*
G54D17*
X99250Y-33643D03*
X99761Y-33643D03*
X100273Y-33643D03*
X100785Y-33643D03*
X100785Y-32856D03*
X100273Y-32856D03*
X99761Y-32856D03*
X99250Y-32856D03*
M02*
