G04 (created by PCBNEW (2013-mar-13)-testing) date Sat 11 May 2013 09:23:07 PM PDT*
%MOIN*%
G04 Gerber Fmt 3.4, Leading zero omitted, Abs format*
%FSLAX34Y34*%
G01*
G70*
G90*
G04 APERTURE LIST*
%ADD10C,0.000787*%
%ADD11R,0.055000X0.055000*%
%ADD12C,0.055000*%
%ADD13R,0.060000X0.060000*%
%ADD14C,0.060000*%
%ADD15C,0.160000*%
%ADD16C,0.035000*%
%ADD17C,0.029528*%
%ADD18C,0.011811*%
G04 APERTURE END LIST*
G54D10*
G54D11*
X84250Y-36500D03*
G54D12*
X84250Y-33500D03*
G54D13*
X87500Y-39750D03*
G54D14*
X86500Y-39750D03*
G54D11*
X86645Y-32250D03*
G54D12*
X87354Y-32250D03*
G54D15*
X101500Y-35250D03*
G54D13*
X83750Y-38265D03*
G54D14*
X83750Y-40234D03*
G54D15*
X84500Y-31000D03*
G54D11*
X90500Y-36500D03*
G54D12*
X91500Y-36500D03*
X92500Y-36500D03*
X93500Y-36500D03*
X94500Y-36500D03*
X95500Y-36500D03*
X96500Y-36500D03*
X97500Y-36500D03*
X97500Y-33500D03*
X96500Y-33500D03*
X95500Y-33500D03*
X94500Y-33500D03*
X93500Y-33500D03*
X92500Y-33500D03*
X91500Y-33500D03*
X90500Y-33500D03*
G54D11*
X94500Y-29500D03*
G54D12*
X93500Y-29500D03*
X92500Y-29500D03*
X91500Y-29500D03*
X90500Y-29500D03*
X90500Y-32500D03*
X91500Y-32500D03*
X92500Y-32500D03*
X93500Y-32500D03*
X94500Y-32500D03*
G54D11*
X94500Y-37500D03*
G54D12*
X93500Y-37500D03*
X92500Y-37500D03*
X91500Y-37500D03*
X90500Y-37500D03*
X90500Y-40500D03*
X91500Y-40500D03*
X92500Y-40500D03*
X93500Y-40500D03*
X94500Y-40500D03*
G54D14*
X82750Y-33500D03*
X82750Y-29500D03*
X102000Y-40500D03*
X98000Y-40500D03*
G54D11*
X88500Y-37500D03*
G54D12*
X88500Y-36500D03*
X88500Y-35500D03*
X88500Y-34500D03*
X85500Y-34500D03*
X85500Y-35500D03*
X85500Y-36500D03*
X85500Y-37500D03*
G54D13*
X82750Y-35000D03*
G54D14*
X82750Y-36000D03*
G54D13*
X97000Y-38500D03*
G54D14*
X97000Y-39500D03*
G54D13*
X97000Y-30500D03*
G54D14*
X97000Y-31500D03*
G54D13*
X86000Y-29500D03*
G54D14*
X87000Y-29500D03*
X88000Y-29500D03*
G54D13*
X101500Y-39000D03*
G54D14*
X100500Y-39000D03*
X101500Y-38000D03*
X100500Y-38000D03*
X101500Y-37000D03*
X100500Y-37000D03*
G54D16*
X95500Y-37500D03*
X88000Y-31000D03*
X89750Y-37000D03*
G54D17*
X100500Y-39000D02*
X97500Y-39000D01*
X97500Y-39000D02*
X97000Y-39500D01*
X97000Y-39500D02*
X95250Y-41250D01*
X95250Y-41250D02*
X88000Y-41250D01*
X88000Y-41250D02*
X86500Y-39750D01*
X97000Y-31500D02*
X88104Y-31500D01*
X88104Y-31500D02*
X87354Y-32250D01*
X86500Y-39750D02*
X86500Y-38500D01*
X86500Y-38500D02*
X88500Y-36500D01*
X88500Y-34500D02*
X88500Y-34000D01*
X88500Y-34000D02*
X87354Y-32854D01*
X84250Y-33500D02*
X86750Y-33500D01*
X86750Y-33500D02*
X87354Y-32895D01*
X87354Y-32895D02*
X87354Y-32854D01*
X87354Y-32854D02*
X87354Y-32250D01*
X84250Y-33500D02*
X84250Y-34500D01*
X84250Y-34500D02*
X82750Y-36000D01*
X88500Y-35500D02*
X88500Y-34500D01*
X88500Y-36500D02*
X88500Y-35500D01*
G54D18*
X94500Y-40500D02*
X95500Y-39500D01*
X95500Y-39500D02*
X95500Y-37500D01*
X94500Y-32500D02*
X93500Y-33500D01*
X100500Y-38000D02*
X100000Y-38000D01*
X96000Y-36000D02*
X95500Y-36500D01*
X98000Y-36000D02*
X96000Y-36000D01*
X100000Y-38000D02*
X98000Y-36000D01*
X100500Y-37000D02*
X99308Y-37000D01*
X94750Y-35750D02*
X92500Y-33500D01*
X98058Y-35750D02*
X94750Y-35750D01*
X99308Y-37000D02*
X98058Y-35750D01*
G54D17*
X89750Y-37000D02*
X89750Y-37750D01*
X89750Y-37750D02*
X90250Y-38250D01*
X90250Y-38250D02*
X92750Y-38250D01*
X92750Y-38250D02*
X93500Y-37500D01*
X88000Y-29500D02*
X88000Y-31000D01*
G54D18*
X101000Y-38500D02*
X100000Y-38500D01*
X96250Y-37000D02*
X93000Y-37000D01*
X92500Y-36500D02*
X93000Y-37000D01*
X101000Y-38500D02*
X101500Y-38000D01*
X98500Y-37000D02*
X96250Y-37000D01*
X100000Y-38500D02*
X98500Y-37000D01*
X96750Y-29500D02*
X97250Y-29500D01*
X94500Y-29500D02*
X96750Y-29500D01*
X96250Y-32750D02*
X95500Y-33500D01*
X96750Y-32750D02*
X96250Y-32750D01*
X97750Y-31750D02*
X96750Y-32750D01*
X97750Y-30000D02*
X97750Y-31750D01*
X97250Y-29500D02*
X97750Y-30000D01*
X101500Y-37000D02*
X100750Y-36250D01*
X99250Y-36250D02*
X96500Y-33500D01*
X100750Y-36250D02*
X99250Y-36250D01*
G54D17*
X90500Y-33500D02*
X90500Y-35500D01*
X90500Y-35500D02*
X88500Y-37500D01*
X88500Y-37500D02*
X88500Y-38750D01*
X88500Y-38750D02*
X87500Y-39750D01*
M02*
