M48
;DRILL file {Pcbnew (2013-04-19 BZR 4011)-stable} date 7/15/2013 11:50:00 PM
;FORMAT={-:-/ absolute / inch / decimal}
FMAT,2
INCH,TZ
T1C0.025
T2C0.032
T3C0.040
T4C0.120
%
G90
G05
M72
T1
X4.88Y-3.68
X4.94Y-3.88
X4.96Y-4.06
X5.3Y-4.22
X5.38Y-3.92
X5.6Y-4.2
X5.6Y-4.66
X5.68Y-4.1
X5.68Y-4.4
X5.78Y-4.28
X5.88Y-4.54
X5.96Y-4.44
T2
X5.24Y-4.34
X5.24Y-4.74
T3
X4.93Y-4.63
X4.93Y-4.73
X5.03Y-4.63
X5.03Y-4.73
X5.81Y-3.78
X5.81Y-4.74
X5.91Y-3.78
X5.91Y-4.74
X6.06Y-4.23
X6.06Y-4.33
X6.06Y-4.52
X6.06Y-4.62
X6.06Y-4.72
T4
X4.68Y-4.72
X6.08Y-3.8
T0
M30
