G04 (created by PCBNEW (2013-04-19 BZR 4011)-stable) date 7/15/2013 11:46:01 PM*
%MOIN*%
G04 Gerber Fmt 3.4, Leading zero omitted, Abs format*
%FSLAX34Y34*%
G01*
G70*
G90*
G04 APERTURE LIST*
%ADD10C,0.000787402*%
%ADD11C,0.012*%
G04 APERTURE END LIST*
G54D10*
G54D11*
X56385Y-38295D02*
X56100Y-38295D01*
X56442Y-38523D02*
X56242Y-37723D01*
X56042Y-38523D01*
X55585Y-37990D02*
X55585Y-38790D01*
X55585Y-38485D02*
X55642Y-38523D01*
X55757Y-38523D01*
X55814Y-38485D01*
X55842Y-38447D01*
X55871Y-38371D01*
X55871Y-38142D01*
X55842Y-38066D01*
X55814Y-38028D01*
X55757Y-37990D01*
X55642Y-37990D01*
X55585Y-38028D01*
X55042Y-37990D02*
X55042Y-38523D01*
X55300Y-37990D02*
X55300Y-38409D01*
X55271Y-38485D01*
X55214Y-38523D01*
X55128Y-38523D01*
X55071Y-38485D01*
X55042Y-38447D01*
X54500Y-38523D02*
X54500Y-38104D01*
X54528Y-38028D01*
X54585Y-37990D01*
X54700Y-37990D01*
X54757Y-38028D01*
X54500Y-38485D02*
X54557Y-38523D01*
X54700Y-38523D01*
X54757Y-38485D01*
X54785Y-38409D01*
X54785Y-38333D01*
X54757Y-38257D01*
X54700Y-38219D01*
X54557Y-38219D01*
X54500Y-38180D01*
X54214Y-38523D02*
X54214Y-37990D01*
X54214Y-38142D02*
X54185Y-38066D01*
X54157Y-38028D01*
X54100Y-37990D01*
X54042Y-37990D01*
X53842Y-38523D02*
X53842Y-37990D01*
X53842Y-37723D02*
X53871Y-37761D01*
X53842Y-37800D01*
X53814Y-37761D01*
X53842Y-37723D01*
X53842Y-37800D01*
X53300Y-37990D02*
X53300Y-38523D01*
X53557Y-37990D02*
X53557Y-38409D01*
X53528Y-38485D01*
X53471Y-38523D01*
X53385Y-38523D01*
X53328Y-38485D01*
X53300Y-38447D01*
X53014Y-38523D02*
X53014Y-37990D01*
X53014Y-38066D02*
X52985Y-38028D01*
X52928Y-37990D01*
X52842Y-37990D01*
X52785Y-38028D01*
X52757Y-38104D01*
X52757Y-38523D01*
X52757Y-38104D02*
X52728Y-38028D01*
X52671Y-37990D01*
X52585Y-37990D01*
X52528Y-38028D01*
X52500Y-38104D01*
X52500Y-38523D01*
X51414Y-38447D02*
X51442Y-38485D01*
X51528Y-38523D01*
X51585Y-38523D01*
X51671Y-38485D01*
X51728Y-38409D01*
X51757Y-38333D01*
X51785Y-38180D01*
X51785Y-38066D01*
X51757Y-37914D01*
X51728Y-37838D01*
X51671Y-37761D01*
X51585Y-37723D01*
X51528Y-37723D01*
X51442Y-37761D01*
X51414Y-37800D01*
X51071Y-38523D02*
X51128Y-38485D01*
X51157Y-38447D01*
X51185Y-38371D01*
X51185Y-38142D01*
X51157Y-38066D01*
X51128Y-38028D01*
X51071Y-37990D01*
X50985Y-37990D01*
X50928Y-38028D01*
X50900Y-38066D01*
X50871Y-38142D01*
X50871Y-38371D01*
X50900Y-38447D01*
X50928Y-38485D01*
X50985Y-38523D01*
X51071Y-38523D01*
X50614Y-37990D02*
X50614Y-38523D01*
X50614Y-38066D02*
X50585Y-38028D01*
X50528Y-37990D01*
X50442Y-37990D01*
X50385Y-38028D01*
X50357Y-38104D01*
X50357Y-38523D01*
X50157Y-37990D02*
X49928Y-37990D01*
X50071Y-37723D02*
X50071Y-38409D01*
X50042Y-38485D01*
X49985Y-38523D01*
X49928Y-38523D01*
X49728Y-38523D02*
X49728Y-37990D01*
X49728Y-38142D02*
X49700Y-38066D01*
X49671Y-38028D01*
X49614Y-37990D01*
X49557Y-37990D01*
X49271Y-38523D02*
X49328Y-38485D01*
X49357Y-38447D01*
X49385Y-38371D01*
X49385Y-38142D01*
X49357Y-38066D01*
X49328Y-38028D01*
X49271Y-37990D01*
X49185Y-37990D01*
X49128Y-38028D01*
X49100Y-38066D01*
X49071Y-38142D01*
X49071Y-38371D01*
X49100Y-38447D01*
X49128Y-38485D01*
X49185Y-38523D01*
X49271Y-38523D01*
X48728Y-38523D02*
X48785Y-38485D01*
X48814Y-38409D01*
X48814Y-37723D01*
X48100Y-37990D02*
X47957Y-38523D01*
X47814Y-37990D01*
X47614Y-37800D02*
X47585Y-37761D01*
X47528Y-37723D01*
X47385Y-37723D01*
X47328Y-37761D01*
X47300Y-37800D01*
X47271Y-37876D01*
X47271Y-37952D01*
X47300Y-38066D01*
X47642Y-38523D01*
X47271Y-38523D01*
X47014Y-38447D02*
X46985Y-38485D01*
X47014Y-38523D01*
X47042Y-38485D01*
X47014Y-38447D01*
X47014Y-38523D01*
X46442Y-37723D02*
X46728Y-37723D01*
X46757Y-38104D01*
X46728Y-38066D01*
X46671Y-38028D01*
X46528Y-38028D01*
X46471Y-38066D01*
X46442Y-38104D01*
X46414Y-38180D01*
X46414Y-38371D01*
X46442Y-38447D01*
X46471Y-38485D01*
X46528Y-38523D01*
X46671Y-38523D01*
X46728Y-38485D01*
X46757Y-38447D01*
X55328Y-39687D02*
X55357Y-39725D01*
X55442Y-39763D01*
X55500Y-39763D01*
X55585Y-39725D01*
X55642Y-39649D01*
X55671Y-39573D01*
X55700Y-39420D01*
X55700Y-39306D01*
X55671Y-39154D01*
X55642Y-39078D01*
X55585Y-39001D01*
X55500Y-38963D01*
X55442Y-38963D01*
X55357Y-39001D01*
X55328Y-39040D01*
X54985Y-39763D02*
X55042Y-39725D01*
X55071Y-39687D01*
X55100Y-39611D01*
X55100Y-39382D01*
X55071Y-39306D01*
X55042Y-39268D01*
X54985Y-39230D01*
X54900Y-39230D01*
X54842Y-39268D01*
X54814Y-39306D01*
X54785Y-39382D01*
X54785Y-39611D01*
X54814Y-39687D01*
X54842Y-39725D01*
X54900Y-39763D01*
X54985Y-39763D01*
X54528Y-39230D02*
X54528Y-40030D01*
X54528Y-39268D02*
X54471Y-39230D01*
X54357Y-39230D01*
X54300Y-39268D01*
X54271Y-39306D01*
X54242Y-39382D01*
X54242Y-39611D01*
X54271Y-39687D01*
X54300Y-39725D01*
X54357Y-39763D01*
X54471Y-39763D01*
X54528Y-39725D01*
X54042Y-39230D02*
X53900Y-39763D01*
X53757Y-39230D02*
X53900Y-39763D01*
X53957Y-39954D01*
X53985Y-39992D01*
X54042Y-40030D01*
X53528Y-39763D02*
X53528Y-39230D01*
X53528Y-39382D02*
X53500Y-39306D01*
X53471Y-39268D01*
X53414Y-39230D01*
X53357Y-39230D01*
X53157Y-39763D02*
X53157Y-39230D01*
X53157Y-38963D02*
X53185Y-39001D01*
X53157Y-39040D01*
X53128Y-39001D01*
X53157Y-38963D01*
X53157Y-39040D01*
X52614Y-39230D02*
X52614Y-39878D01*
X52642Y-39954D01*
X52671Y-39992D01*
X52728Y-40030D01*
X52814Y-40030D01*
X52871Y-39992D01*
X52614Y-39725D02*
X52671Y-39763D01*
X52785Y-39763D01*
X52842Y-39725D01*
X52871Y-39687D01*
X52900Y-39611D01*
X52900Y-39382D01*
X52871Y-39306D01*
X52842Y-39268D01*
X52785Y-39230D01*
X52671Y-39230D01*
X52614Y-39268D01*
X52328Y-39763D02*
X52328Y-38963D01*
X52071Y-39763D02*
X52071Y-39344D01*
X52100Y-39268D01*
X52157Y-39230D01*
X52242Y-39230D01*
X52300Y-39268D01*
X52328Y-39306D01*
X51871Y-39230D02*
X51642Y-39230D01*
X51785Y-38963D02*
X51785Y-39649D01*
X51757Y-39725D01*
X51700Y-39763D01*
X51642Y-39763D01*
X50814Y-40068D02*
X50842Y-40030D01*
X50900Y-39916D01*
X50928Y-39840D01*
X50957Y-39725D01*
X50985Y-39535D01*
X50985Y-39382D01*
X50957Y-39192D01*
X50928Y-39078D01*
X50900Y-39001D01*
X50842Y-38887D01*
X50814Y-38849D01*
X50242Y-39687D02*
X50271Y-39725D01*
X50357Y-39763D01*
X50414Y-39763D01*
X50500Y-39725D01*
X50557Y-39649D01*
X50585Y-39573D01*
X50614Y-39420D01*
X50614Y-39306D01*
X50585Y-39154D01*
X50557Y-39078D01*
X50500Y-39001D01*
X50414Y-38963D01*
X50357Y-38963D01*
X50271Y-39001D01*
X50242Y-39040D01*
X50042Y-40068D02*
X50014Y-40030D01*
X49957Y-39916D01*
X49928Y-39840D01*
X49900Y-39725D01*
X49871Y-39535D01*
X49871Y-39382D01*
X49900Y-39192D01*
X49928Y-39078D01*
X49957Y-39001D01*
X50014Y-38887D01*
X50042Y-38849D01*
X49157Y-39040D02*
X49128Y-39001D01*
X49071Y-38963D01*
X48928Y-38963D01*
X48871Y-39001D01*
X48842Y-39040D01*
X48814Y-39116D01*
X48814Y-39192D01*
X48842Y-39306D01*
X49185Y-39763D01*
X48814Y-39763D01*
X48442Y-38963D02*
X48385Y-38963D01*
X48328Y-39001D01*
X48300Y-39040D01*
X48271Y-39116D01*
X48242Y-39268D01*
X48242Y-39459D01*
X48271Y-39611D01*
X48300Y-39687D01*
X48328Y-39725D01*
X48385Y-39763D01*
X48442Y-39763D01*
X48500Y-39725D01*
X48528Y-39687D01*
X48557Y-39611D01*
X48585Y-39459D01*
X48585Y-39268D01*
X48557Y-39116D01*
X48528Y-39040D01*
X48500Y-39001D01*
X48442Y-38963D01*
X47671Y-39763D02*
X48014Y-39763D01*
X47842Y-39763D02*
X47842Y-38963D01*
X47900Y-39078D01*
X47957Y-39154D01*
X48014Y-39192D01*
X47471Y-38963D02*
X47099Y-38963D01*
X47299Y-39268D01*
X47214Y-39268D01*
X47157Y-39306D01*
X47128Y-39344D01*
X47099Y-39420D01*
X47099Y-39611D01*
X47128Y-39687D01*
X47157Y-39725D01*
X47214Y-39763D01*
X47385Y-39763D01*
X47442Y-39725D01*
X47471Y-39687D01*
X54171Y-40584D02*
X54085Y-40622D01*
X54057Y-40660D01*
X54028Y-40737D01*
X54028Y-40851D01*
X54057Y-40927D01*
X54085Y-40965D01*
X54142Y-41003D01*
X54371Y-41003D01*
X54371Y-40203D01*
X54171Y-40203D01*
X54114Y-40241D01*
X54085Y-40280D01*
X54057Y-40356D01*
X54057Y-40432D01*
X54085Y-40508D01*
X54114Y-40546D01*
X54171Y-40584D01*
X54371Y-40584D01*
X53771Y-41003D02*
X53771Y-40470D01*
X53771Y-40622D02*
X53742Y-40546D01*
X53714Y-40508D01*
X53657Y-40470D01*
X53599Y-40470D01*
X53457Y-40470D02*
X53314Y-41003D01*
X53171Y-40470D02*
X53314Y-41003D01*
X53371Y-41194D01*
X53399Y-41232D01*
X53457Y-41270D01*
X52685Y-41003D02*
X52685Y-40584D01*
X52714Y-40508D01*
X52771Y-40470D01*
X52885Y-40470D01*
X52942Y-40508D01*
X52685Y-40965D02*
X52742Y-41003D01*
X52885Y-41003D01*
X52942Y-40965D01*
X52971Y-40889D01*
X52971Y-40813D01*
X52942Y-40737D01*
X52885Y-40699D01*
X52742Y-40699D01*
X52685Y-40660D01*
X52399Y-40470D02*
X52399Y-41003D01*
X52399Y-40546D02*
X52371Y-40508D01*
X52314Y-40470D01*
X52228Y-40470D01*
X52171Y-40508D01*
X52142Y-40584D01*
X52142Y-41003D01*
X51399Y-41003D02*
X51399Y-40203D01*
X51399Y-40584D02*
X51057Y-40584D01*
X51057Y-41003D02*
X51057Y-40203D01*
X50514Y-40470D02*
X50514Y-41003D01*
X50771Y-40470D02*
X50771Y-40889D01*
X50742Y-40965D01*
X50685Y-41003D01*
X50599Y-41003D01*
X50542Y-40965D01*
X50514Y-40927D01*
X49971Y-40470D02*
X49971Y-41118D01*
X49999Y-41194D01*
X50028Y-41232D01*
X50085Y-41270D01*
X50171Y-41270D01*
X50228Y-41232D01*
X49971Y-40965D02*
X50028Y-41003D01*
X50142Y-41003D01*
X50199Y-40965D01*
X50228Y-40927D01*
X50257Y-40851D01*
X50257Y-40622D01*
X50228Y-40546D01*
X50199Y-40508D01*
X50142Y-40470D01*
X50028Y-40470D01*
X49971Y-40508D01*
X49685Y-41003D02*
X49685Y-40203D01*
X49428Y-41003D02*
X49428Y-40584D01*
X49457Y-40508D01*
X49514Y-40470D01*
X49600Y-40470D01*
X49657Y-40508D01*
X49685Y-40546D01*
X48914Y-40965D02*
X48971Y-41003D01*
X49085Y-41003D01*
X49142Y-40965D01*
X49171Y-40889D01*
X49171Y-40584D01*
X49142Y-40508D01*
X49085Y-40470D01*
X48971Y-40470D01*
X48914Y-40508D01*
X48885Y-40584D01*
X48885Y-40660D01*
X49171Y-40737D01*
X48657Y-40965D02*
X48599Y-41003D01*
X48485Y-41003D01*
X48428Y-40965D01*
X48399Y-40889D01*
X48399Y-40851D01*
X48428Y-40775D01*
X48485Y-40737D01*
X48571Y-40737D01*
X48628Y-40699D01*
X48657Y-40622D01*
X48657Y-40584D01*
X48628Y-40508D01*
X48571Y-40470D01*
X48485Y-40470D01*
X48428Y-40508D01*
M02*
