G04 (created by PCBNEW (2013-04-19 BZR 4011)-stable) date 7/15/2013 11:46:01 PM*
%MOIN*%
G04 Gerber Fmt 3.4, Leading zero omitted, Abs format*
%FSLAX34Y34*%
G01*
G70*
G90*
G04 APERTURE LIST*
%ADD10C,0.000787402*%
%ADD11R,0.035X0.055*%
%ADD12R,0.0709X0.1063*%
%ADD13C,0.06*%
%ADD14C,0.16*%
%ADD15R,0.06X0.06*%
%ADD16R,0.055X0.035*%
%ADD17R,0.0255906X0.0393701*%
%ADD18R,0.0276X0.0394*%
%ADD19R,0.0275591X0.0787402*%
%ADD20R,0.0275591X0.0610236*%
%ADD21R,0.0610236X0.023622*%
%ADD22C,0.035*%
%ADD23C,0.0590551*%
%ADD24C,0.019685*%
%ADD25C,0.011811*%
G04 APERTURE END LIST*
G54D10*
G54D11*
X46775Y-44800D03*
X46025Y-44800D03*
X47625Y-44800D03*
X48375Y-44800D03*
G54D12*
X48187Y-39800D03*
X46613Y-39800D03*
X48187Y-41600D03*
X46613Y-41600D03*
X48187Y-43400D03*
X46613Y-43400D03*
G54D13*
X52400Y-47400D03*
X52400Y-43400D03*
G54D14*
X46800Y-47200D03*
X60800Y-38000D03*
G54D15*
X50300Y-47300D03*
G54D13*
X49300Y-47300D03*
X50300Y-46300D03*
X49300Y-46300D03*
G54D15*
X58100Y-47400D03*
G54D13*
X59100Y-47400D03*
G54D15*
X58100Y-37800D03*
G54D13*
X59100Y-37800D03*
G54D15*
X60600Y-43300D03*
G54D13*
X60600Y-42300D03*
G54D15*
X60600Y-47200D03*
G54D13*
X60600Y-46200D03*
X60600Y-45200D03*
G54D11*
X50825Y-37400D03*
X50075Y-37400D03*
X50825Y-38400D03*
X50075Y-38400D03*
G54D16*
X51700Y-37775D03*
X51700Y-38525D03*
G54D11*
X49575Y-44400D03*
X50325Y-44400D03*
X49575Y-43400D03*
X50325Y-43400D03*
G54D16*
X51200Y-43275D03*
X51200Y-44025D03*
X53500Y-42875D03*
X53500Y-43625D03*
X55500Y-41125D03*
X55500Y-41875D03*
G54D17*
X48200Y-37206D03*
X47688Y-37206D03*
X47176Y-37206D03*
X46664Y-37206D03*
X46664Y-37993D03*
X47176Y-37993D03*
X47688Y-37993D03*
X48200Y-37993D03*
G54D18*
X53625Y-41000D03*
X54000Y-41000D03*
X54375Y-41000D03*
X54375Y-42000D03*
X54000Y-42000D03*
X53625Y-42000D03*
G54D19*
X53800Y-47381D03*
X55059Y-47381D03*
X55925Y-47381D03*
X56792Y-47381D03*
X56792Y-45018D03*
X55925Y-45018D03*
X55059Y-45018D03*
X53800Y-45018D03*
X53800Y-39981D03*
X55059Y-39981D03*
X55925Y-39981D03*
X56792Y-39981D03*
X56792Y-37618D03*
X55925Y-37618D03*
X55059Y-37618D03*
X53800Y-37618D03*
G54D20*
X49450Y-42297D03*
X49950Y-42297D03*
X50450Y-42297D03*
X50950Y-42297D03*
X51450Y-42297D03*
X51950Y-42297D03*
X52450Y-42297D03*
X52450Y-39502D03*
X51950Y-39502D03*
X50950Y-39502D03*
X50450Y-39502D03*
X49950Y-39502D03*
X49450Y-39502D03*
X51450Y-39502D03*
G54D11*
X55225Y-43800D03*
X55975Y-43800D03*
X55225Y-42800D03*
X55975Y-42800D03*
X57825Y-40600D03*
X58575Y-40600D03*
X58025Y-44600D03*
X58775Y-44600D03*
G54D21*
X56800Y-42000D03*
X56800Y-42519D03*
X56800Y-43039D03*
X56800Y-43559D03*
X59004Y-43559D03*
X59004Y-43039D03*
X59004Y-42519D03*
X59004Y-42000D03*
G54D22*
X53000Y-42200D03*
X58800Y-45400D03*
X56000Y-42000D03*
X56800Y-44000D03*
X48800Y-36800D03*
X49600Y-40600D03*
X57800Y-42800D03*
X53800Y-39200D03*
X56800Y-41000D03*
X59600Y-44400D03*
X49400Y-38800D03*
X56000Y-46600D03*
G54D23*
X59100Y-47400D02*
X59300Y-47400D01*
X59300Y-47400D02*
X60100Y-48200D01*
X59100Y-37800D02*
X59100Y-38700D01*
X61550Y-41150D02*
X61550Y-41350D01*
X59100Y-38700D02*
X61550Y-41150D01*
G54D24*
X52450Y-42297D02*
X52902Y-42297D01*
X52902Y-42297D02*
X53000Y-42200D01*
X58775Y-45375D02*
X58775Y-44600D01*
X58800Y-45400D02*
X58775Y-45375D01*
X55500Y-41875D02*
X55875Y-41875D01*
X55875Y-41875D02*
X56000Y-42000D01*
X56800Y-44000D02*
X56800Y-43559D01*
X60050Y-48150D02*
X60000Y-48150D01*
X60000Y-48150D02*
X49150Y-48150D01*
X48600Y-47000D02*
X49300Y-46300D01*
X48600Y-47600D02*
X48600Y-47000D01*
X49150Y-48150D02*
X48600Y-47600D01*
X55225Y-42800D02*
X55225Y-42150D01*
X55225Y-42150D02*
X55500Y-41875D01*
X58575Y-40600D02*
X58575Y-41570D01*
X58575Y-41570D02*
X59004Y-42000D01*
X58775Y-44600D02*
X58775Y-43788D01*
X58775Y-43788D02*
X59004Y-43559D01*
G54D23*
X60600Y-42300D02*
X59224Y-42300D01*
X59224Y-42300D02*
X59004Y-42519D01*
X59004Y-42519D02*
X59004Y-42000D01*
X59004Y-43039D02*
X59004Y-42519D01*
X59004Y-43559D02*
X59004Y-43039D01*
X61550Y-41350D02*
X61550Y-47850D01*
X61550Y-47850D02*
X61200Y-48200D01*
X61200Y-48200D02*
X60100Y-48200D01*
X60100Y-48200D02*
X60050Y-48150D01*
X61550Y-41350D02*
X60600Y-42300D01*
G54D25*
X48375Y-44800D02*
X48375Y-45375D01*
X48375Y-45375D02*
X49300Y-46300D01*
X46025Y-44800D02*
X46025Y-45025D01*
X47775Y-45400D02*
X48375Y-44800D01*
X46400Y-45400D02*
X47775Y-45400D01*
X46025Y-45025D02*
X46400Y-45400D01*
X48200Y-37206D02*
X48393Y-37206D01*
X48393Y-37206D02*
X48800Y-36800D01*
X47176Y-37206D02*
X46664Y-37206D01*
X47688Y-37206D02*
X47176Y-37206D01*
X52450Y-42297D02*
X52450Y-42575D01*
X52450Y-42575D02*
X53500Y-43625D01*
X48200Y-37206D02*
X47688Y-37206D01*
X49600Y-40600D02*
X49950Y-40250D01*
X49950Y-40250D02*
X49950Y-39502D01*
X47688Y-37993D02*
X47688Y-38511D01*
X46000Y-40987D02*
X46613Y-41600D01*
X46000Y-39200D02*
X46000Y-40987D01*
X46200Y-39000D02*
X46000Y-39200D01*
X47200Y-39000D02*
X46200Y-39000D01*
X47688Y-38511D02*
X47200Y-39000D01*
X48187Y-41600D02*
X53800Y-41600D01*
X54000Y-41800D02*
X54000Y-42000D01*
X53800Y-41600D02*
X54000Y-41800D01*
X54000Y-42000D02*
X54000Y-44000D01*
X51575Y-44400D02*
X51200Y-44025D01*
X53600Y-44400D02*
X51575Y-44400D01*
X54000Y-44000D02*
X53600Y-44400D01*
X50325Y-44400D02*
X50825Y-44400D01*
X50825Y-44400D02*
X51200Y-44025D01*
X53625Y-42000D02*
X53625Y-42750D01*
X53625Y-42750D02*
X53500Y-42875D01*
G54D24*
X54375Y-41000D02*
X55375Y-41000D01*
X55375Y-41000D02*
X55500Y-41125D01*
G54D25*
X46664Y-37993D02*
X46664Y-38135D01*
X45600Y-42387D02*
X46613Y-43400D01*
X45600Y-39200D02*
X45600Y-42387D01*
X46664Y-38135D02*
X45600Y-39200D01*
X46613Y-39800D02*
X47000Y-39800D01*
X48200Y-38600D02*
X48200Y-37993D01*
X47000Y-39800D02*
X48200Y-38600D01*
G54D24*
X55975Y-42800D02*
X55975Y-43800D01*
X56800Y-42519D02*
X56255Y-42519D01*
X56255Y-42519D02*
X55975Y-42800D01*
X57600Y-43039D02*
X57600Y-43000D01*
X57600Y-43000D02*
X57800Y-42800D01*
X55225Y-43800D02*
X55225Y-44025D01*
X57825Y-44400D02*
X58025Y-44600D01*
X55600Y-44400D02*
X57825Y-44400D01*
X55225Y-44025D02*
X55600Y-44400D01*
X58025Y-44600D02*
X58025Y-44775D01*
X54200Y-45800D02*
X53800Y-46200D01*
X57000Y-45800D02*
X54200Y-45800D01*
X58025Y-44775D02*
X57000Y-45800D01*
X53800Y-39981D02*
X53800Y-39200D01*
X53800Y-46200D02*
X53800Y-47381D01*
X58025Y-44600D02*
X58025Y-43425D01*
X57639Y-43039D02*
X57600Y-43039D01*
X57600Y-43039D02*
X56800Y-43039D01*
X58025Y-43425D02*
X57639Y-43039D01*
X57825Y-40600D02*
X57411Y-40600D01*
X57411Y-40600D02*
X56792Y-39981D01*
X56800Y-42000D02*
X56800Y-41000D01*
G54D23*
X59600Y-46400D02*
X59600Y-44400D01*
X56792Y-40992D02*
X56792Y-39981D01*
X56800Y-41000D02*
X56792Y-40992D01*
X60600Y-47200D02*
X60400Y-47200D01*
X56792Y-47007D02*
X56792Y-47381D01*
X57400Y-46400D02*
X56792Y-47007D01*
X59600Y-46400D02*
X57400Y-46400D01*
X60400Y-47200D02*
X59600Y-46400D01*
G54D25*
X47625Y-44800D02*
X46775Y-44800D01*
X47625Y-44800D02*
X47625Y-43962D01*
X47625Y-43962D02*
X48187Y-43400D01*
X49450Y-38850D02*
X49450Y-39502D01*
X49400Y-38800D02*
X49450Y-38850D01*
X49450Y-39502D02*
X49450Y-39750D01*
X47400Y-42613D02*
X48187Y-43400D01*
X47400Y-40800D02*
X47400Y-42613D01*
X47600Y-40600D02*
X47400Y-40800D01*
X48600Y-40600D02*
X47600Y-40600D01*
X49450Y-39750D02*
X48600Y-40600D01*
X50950Y-39502D02*
X50950Y-38525D01*
X50950Y-38525D02*
X50825Y-38400D01*
X51450Y-39502D02*
X51450Y-38775D01*
X51450Y-38775D02*
X51700Y-38525D01*
X50075Y-37400D02*
X50075Y-38400D01*
X50450Y-39502D02*
X50450Y-38775D01*
X50450Y-38775D02*
X50075Y-38400D01*
X49450Y-42297D02*
X49450Y-42350D01*
X49800Y-46800D02*
X49300Y-47300D01*
X49800Y-45800D02*
X49800Y-46800D01*
X49000Y-45000D02*
X49800Y-45800D01*
X49000Y-42800D02*
X49000Y-45000D01*
X49450Y-42350D02*
X49000Y-42800D01*
G54D23*
X58100Y-37800D02*
X57800Y-37800D01*
X55925Y-39674D02*
X55925Y-39981D01*
X57800Y-37800D02*
X55925Y-39674D01*
G54D25*
X53625Y-41000D02*
X53625Y-40825D01*
X53400Y-38018D02*
X53800Y-37618D01*
X53400Y-40600D02*
X53400Y-38018D01*
X53625Y-40825D02*
X53400Y-40600D01*
G54D24*
X54375Y-42000D02*
X54375Y-44443D01*
X54375Y-44443D02*
X53800Y-45018D01*
G54D25*
X54000Y-37000D02*
X54400Y-37000D01*
X51700Y-37700D02*
X52400Y-37000D01*
X52400Y-37000D02*
X54000Y-37000D01*
X51700Y-37775D02*
X51700Y-37700D01*
X54000Y-40600D02*
X54000Y-41000D01*
X54600Y-40000D02*
X54000Y-40600D01*
X54600Y-37200D02*
X54600Y-40000D01*
X54400Y-37000D02*
X54600Y-37200D01*
X50825Y-37400D02*
X50825Y-37225D01*
X48800Y-39187D02*
X48187Y-39800D01*
X48800Y-37400D02*
X48800Y-39187D01*
X49400Y-36800D02*
X48800Y-37400D01*
X50400Y-36800D02*
X49400Y-36800D01*
X50825Y-37225D02*
X50400Y-36800D01*
X50825Y-37400D02*
X51325Y-37400D01*
X51325Y-37400D02*
X51700Y-37775D01*
X50450Y-42297D02*
X50450Y-43275D01*
X50450Y-43275D02*
X50325Y-43400D01*
G54D23*
X55925Y-46674D02*
X55925Y-47381D01*
X56000Y-46600D02*
X55925Y-46674D01*
G54D25*
X50950Y-42297D02*
X50950Y-43025D01*
X50950Y-43025D02*
X51200Y-43275D01*
X49950Y-42297D02*
X49950Y-43025D01*
X49950Y-43025D02*
X49575Y-43400D01*
X49575Y-43400D02*
X49575Y-44400D01*
M02*
