G04 (created by PCBNEW (2013-04-19 BZR 4011)-stable) date 7/15/2013 11:46:01 PM*
%MOIN*%
G04 Gerber Fmt 3.4, Leading zero omitted, Abs format*
%FSLAX34Y34*%
G01*
G70*
G90*
G04 APERTURE LIST*
%ADD10C,0.000787402*%
%ADD11R,0.055X0.075*%
%ADD12R,0.0909X0.1263*%
%ADD13C,0.08*%
%ADD14C,0.18*%
%ADD15R,0.08X0.08*%
%ADD16R,0.075X0.055*%
%ADD17R,0.0455906X0.0593701*%
%ADD18R,0.0476X0.0594*%
%ADD19R,0.0475591X0.0987402*%
%ADD20R,0.0475591X0.0810236*%
%ADD21R,0.0810236X0.043622*%
G04 APERTURE END LIST*
G54D10*
G54D11*
X46775Y-44800D03*
X46025Y-44800D03*
X47625Y-44800D03*
X48375Y-44800D03*
G54D12*
X48187Y-39800D03*
X46613Y-39800D03*
X48187Y-41600D03*
X46613Y-41600D03*
X48187Y-43400D03*
X46613Y-43400D03*
G54D13*
X52400Y-47400D03*
X52400Y-43400D03*
G54D14*
X46800Y-47200D03*
X60800Y-38000D03*
G54D15*
X50300Y-47300D03*
G54D13*
X49300Y-47300D03*
X50300Y-46300D03*
X49300Y-46300D03*
G54D15*
X58100Y-47400D03*
G54D13*
X59100Y-47400D03*
G54D15*
X58100Y-37800D03*
G54D13*
X59100Y-37800D03*
G54D15*
X60600Y-43300D03*
G54D13*
X60600Y-42300D03*
G54D15*
X60600Y-47200D03*
G54D13*
X60600Y-46200D03*
X60600Y-45200D03*
G54D11*
X50825Y-37400D03*
X50075Y-37400D03*
X50825Y-38400D03*
X50075Y-38400D03*
G54D16*
X51700Y-37775D03*
X51700Y-38525D03*
G54D11*
X49575Y-44400D03*
X50325Y-44400D03*
X49575Y-43400D03*
X50325Y-43400D03*
G54D16*
X51200Y-43275D03*
X51200Y-44025D03*
X53500Y-42875D03*
X53500Y-43625D03*
X55500Y-41125D03*
X55500Y-41875D03*
G54D17*
X48200Y-37206D03*
X47688Y-37206D03*
X47176Y-37206D03*
X46664Y-37206D03*
X46664Y-37993D03*
X47176Y-37993D03*
X47688Y-37993D03*
X48200Y-37993D03*
G54D18*
X53625Y-41000D03*
X54000Y-41000D03*
X54375Y-41000D03*
X54375Y-42000D03*
X54000Y-42000D03*
X53625Y-42000D03*
G54D19*
X53800Y-47381D03*
X55059Y-47381D03*
X55925Y-47381D03*
X56792Y-47381D03*
X56792Y-45018D03*
X55925Y-45018D03*
X55059Y-45018D03*
X53800Y-45018D03*
X53800Y-39981D03*
X55059Y-39981D03*
X55925Y-39981D03*
X56792Y-39981D03*
X56792Y-37618D03*
X55925Y-37618D03*
X55059Y-37618D03*
X53800Y-37618D03*
G54D20*
X49450Y-42297D03*
X49950Y-42297D03*
X50450Y-42297D03*
X50950Y-42297D03*
X51450Y-42297D03*
X51950Y-42297D03*
X52450Y-42297D03*
X52450Y-39502D03*
X51950Y-39502D03*
X50950Y-39502D03*
X50450Y-39502D03*
X49950Y-39502D03*
X49450Y-39502D03*
X51450Y-39502D03*
G54D11*
X55225Y-43800D03*
X55975Y-43800D03*
X55225Y-42800D03*
X55975Y-42800D03*
X57825Y-40600D03*
X58575Y-40600D03*
X58025Y-44600D03*
X58775Y-44600D03*
G54D21*
X56800Y-42000D03*
X56800Y-42519D03*
X56800Y-43039D03*
X56800Y-43559D03*
X59004Y-43559D03*
X59004Y-43039D03*
X59004Y-42519D03*
X59004Y-42000D03*
M02*
