G04 (created by PCBNEW (2013-04-19 BZR 4011)-stable) date 7/15/2013 11:46:01 PM*
%MOIN*%
G04 Gerber Fmt 3.4, Leading zero omitted, Abs format*
%FSLAX34Y34*%
G01*
G70*
G90*
G04 APERTURE LIST*
%ADD10C,0.000787402*%
%ADD11C,0.0039*%
%ADD12C,0.0047*%
%ADD13C,0.012*%
%ADD14C,0.015*%
%ADD15C,0.006*%
%ADD16C,0.005*%
%ADD17C,0.008*%
%ADD18C,0.0043*%
%ADD19C,0.0118*%
%ADD20C,0.003*%
%ADD21C,0.00787402*%
G04 APERTURE END LIST*
G54D10*
G54D11*
X47100Y-44500D02*
G75*
G03X47100Y-44500I-50J0D01*
G74*
G01*
X46600Y-44500D02*
X47000Y-44500D01*
X47000Y-44500D02*
X47000Y-45100D01*
X47000Y-45100D02*
X46600Y-45100D01*
X46200Y-45100D02*
X45800Y-45100D01*
X45800Y-45100D02*
X45800Y-44500D01*
X45800Y-44500D02*
X46200Y-44500D01*
X47400Y-45100D02*
G75*
G03X47400Y-45100I-50J0D01*
G74*
G01*
X47800Y-45100D02*
X47400Y-45100D01*
X47400Y-45100D02*
X47400Y-44500D01*
X47400Y-44500D02*
X47800Y-44500D01*
X48200Y-44500D02*
X48600Y-44500D01*
X48600Y-44500D02*
X48600Y-45100D01*
X48600Y-45100D02*
X48200Y-45100D01*
G54D12*
X46140Y-40430D02*
X46140Y-39170D01*
X48660Y-40430D02*
X48660Y-39170D01*
X47047Y-39168D02*
X46147Y-39168D01*
X46147Y-40432D02*
X47047Y-40432D01*
X47754Y-40432D02*
X48654Y-40432D01*
X48654Y-39168D02*
X47754Y-39168D01*
X46140Y-42230D02*
X46140Y-40970D01*
X48660Y-42230D02*
X48660Y-40970D01*
X47047Y-40968D02*
X46147Y-40968D01*
X46147Y-42232D02*
X47047Y-42232D01*
X47754Y-42232D02*
X48654Y-42232D01*
X48654Y-40968D02*
X47754Y-40968D01*
X46140Y-44030D02*
X46140Y-42770D01*
X48660Y-44030D02*
X48660Y-42770D01*
X47047Y-42768D02*
X46147Y-42768D01*
X46147Y-44032D02*
X47047Y-44032D01*
X47754Y-44032D02*
X48654Y-44032D01*
X48654Y-42768D02*
X47754Y-42768D01*
G54D13*
X52400Y-47400D02*
X52400Y-47000D01*
X52400Y-47000D02*
X52000Y-47000D01*
X52000Y-47000D02*
X52000Y-43800D01*
X52000Y-43800D02*
X52800Y-43800D01*
X52800Y-43800D02*
X52800Y-47000D01*
X52800Y-47000D02*
X52400Y-47000D01*
X52200Y-47000D02*
X52000Y-46800D01*
X52400Y-43400D02*
X52400Y-43800D01*
G54D14*
X47700Y-47200D02*
G75*
G03X47700Y-47200I-900J0D01*
G74*
G01*
X61700Y-38000D02*
G75*
G03X61700Y-38000I-900J0D01*
G74*
G01*
G54D13*
X48800Y-47800D02*
X48800Y-45800D01*
X48800Y-45800D02*
X50800Y-45800D01*
X50800Y-45800D02*
X50800Y-47800D01*
X50800Y-47800D02*
X48800Y-47800D01*
G54D15*
X57600Y-47900D02*
X57600Y-46900D01*
X57600Y-46900D02*
X59600Y-46900D01*
X59600Y-46900D02*
X59600Y-47900D01*
X59600Y-47900D02*
X57600Y-47900D01*
X57600Y-38300D02*
X57600Y-37300D01*
X57600Y-37300D02*
X59600Y-37300D01*
X59600Y-37300D02*
X59600Y-38300D01*
X59600Y-38300D02*
X57600Y-38300D01*
X61100Y-43800D02*
X60100Y-43800D01*
X60100Y-43800D02*
X60100Y-41800D01*
X60100Y-41800D02*
X61100Y-41800D01*
X61100Y-41800D02*
X61100Y-43800D01*
X61100Y-47700D02*
X60100Y-47700D01*
X60100Y-47700D02*
X60100Y-44700D01*
X60100Y-44700D02*
X61100Y-44700D01*
X61100Y-44700D02*
X61100Y-47700D01*
X60100Y-46700D02*
X61100Y-46700D01*
G54D11*
X51150Y-37100D02*
G75*
G03X51150Y-37100I-50J0D01*
G74*
G01*
X50650Y-37100D02*
X51050Y-37100D01*
X51050Y-37100D02*
X51050Y-37700D01*
X51050Y-37700D02*
X50650Y-37700D01*
X50250Y-37700D02*
X49850Y-37700D01*
X49850Y-37700D02*
X49850Y-37100D01*
X49850Y-37100D02*
X50250Y-37100D01*
X51150Y-38100D02*
G75*
G03X51150Y-38100I-50J0D01*
G74*
G01*
X50650Y-38100D02*
X51050Y-38100D01*
X51050Y-38100D02*
X51050Y-38700D01*
X51050Y-38700D02*
X50650Y-38700D01*
X50250Y-38700D02*
X49850Y-38700D01*
X49850Y-38700D02*
X49850Y-38100D01*
X49850Y-38100D02*
X50250Y-38100D01*
X51450Y-37500D02*
G75*
G03X51450Y-37500I-50J0D01*
G74*
G01*
X51400Y-37950D02*
X51400Y-37550D01*
X51400Y-37550D02*
X52000Y-37550D01*
X52000Y-37550D02*
X52000Y-37950D01*
X52000Y-38350D02*
X52000Y-38750D01*
X52000Y-38750D02*
X51400Y-38750D01*
X51400Y-38750D02*
X51400Y-38350D01*
X49350Y-44700D02*
G75*
G03X49350Y-44700I-50J0D01*
G74*
G01*
X49750Y-44700D02*
X49350Y-44700D01*
X49350Y-44700D02*
X49350Y-44100D01*
X49350Y-44100D02*
X49750Y-44100D01*
X50150Y-44100D02*
X50550Y-44100D01*
X50550Y-44100D02*
X50550Y-44700D01*
X50550Y-44700D02*
X50150Y-44700D01*
X49350Y-43700D02*
G75*
G03X49350Y-43700I-50J0D01*
G74*
G01*
X49750Y-43700D02*
X49350Y-43700D01*
X49350Y-43700D02*
X49350Y-43100D01*
X49350Y-43100D02*
X49750Y-43100D01*
X50150Y-43100D02*
X50550Y-43100D01*
X50550Y-43100D02*
X50550Y-43700D01*
X50550Y-43700D02*
X50150Y-43700D01*
X50950Y-43000D02*
G75*
G03X50950Y-43000I-50J0D01*
G74*
G01*
X50900Y-43450D02*
X50900Y-43050D01*
X50900Y-43050D02*
X51500Y-43050D01*
X51500Y-43050D02*
X51500Y-43450D01*
X51500Y-43850D02*
X51500Y-44250D01*
X51500Y-44250D02*
X50900Y-44250D01*
X50900Y-44250D02*
X50900Y-43850D01*
X53250Y-42600D02*
G75*
G03X53250Y-42600I-50J0D01*
G74*
G01*
X53200Y-43050D02*
X53200Y-42650D01*
X53200Y-42650D02*
X53800Y-42650D01*
X53800Y-42650D02*
X53800Y-43050D01*
X53800Y-43450D02*
X53800Y-43850D01*
X53800Y-43850D02*
X53200Y-43850D01*
X53200Y-43850D02*
X53200Y-43450D01*
X55250Y-40850D02*
G75*
G03X55250Y-40850I-50J0D01*
G74*
G01*
X55200Y-41300D02*
X55200Y-40900D01*
X55200Y-40900D02*
X55800Y-40900D01*
X55800Y-40900D02*
X55800Y-41300D01*
X55800Y-41700D02*
X55800Y-42100D01*
X55800Y-42100D02*
X55200Y-42100D01*
X55200Y-42100D02*
X55200Y-41700D01*
G54D15*
X46388Y-36842D02*
X48485Y-36842D01*
X48485Y-36851D02*
X48485Y-38348D01*
X48485Y-38357D02*
X46388Y-38357D01*
X46379Y-38357D02*
X46379Y-36851D01*
G54D16*
X53800Y-41800D02*
X53500Y-41600D01*
X54500Y-41800D02*
X53475Y-41800D01*
X53475Y-41800D02*
X53475Y-41200D01*
X53475Y-41200D02*
X54500Y-41200D01*
X54500Y-41200D02*
X54500Y-41800D01*
G54D17*
X52950Y-39960D02*
X52950Y-41860D01*
X52950Y-41860D02*
X48950Y-41860D01*
X48950Y-41860D02*
X48950Y-39960D01*
X48950Y-39960D02*
X52950Y-39960D01*
X48950Y-40660D02*
X49200Y-40660D01*
X49200Y-40660D02*
X49200Y-41160D01*
X49200Y-41160D02*
X48950Y-41160D01*
G54D11*
X55000Y-44100D02*
G75*
G03X55000Y-44100I-50J0D01*
G74*
G01*
X55400Y-44100D02*
X55000Y-44100D01*
X55000Y-44100D02*
X55000Y-43500D01*
X55000Y-43500D02*
X55400Y-43500D01*
X55800Y-43500D02*
X56200Y-43500D01*
X56200Y-43500D02*
X56200Y-44100D01*
X56200Y-44100D02*
X55800Y-44100D01*
X55000Y-43100D02*
G75*
G03X55000Y-43100I-50J0D01*
G74*
G01*
X55400Y-43100D02*
X55000Y-43100D01*
X55000Y-43100D02*
X55000Y-42500D01*
X55000Y-42500D02*
X55400Y-42500D01*
X55800Y-42500D02*
X56200Y-42500D01*
X56200Y-42500D02*
X56200Y-43100D01*
X56200Y-43100D02*
X55800Y-43100D01*
X57600Y-40900D02*
G75*
G03X57600Y-40900I-50J0D01*
G74*
G01*
X58000Y-40900D02*
X57600Y-40900D01*
X57600Y-40900D02*
X57600Y-40300D01*
X57600Y-40300D02*
X58000Y-40300D01*
X58400Y-40300D02*
X58800Y-40300D01*
X58800Y-40300D02*
X58800Y-40900D01*
X58800Y-40900D02*
X58400Y-40900D01*
X57800Y-44900D02*
G75*
G03X57800Y-44900I-50J0D01*
G74*
G01*
X58200Y-44900D02*
X57800Y-44900D01*
X57800Y-44900D02*
X57800Y-44300D01*
X57800Y-44300D02*
X58200Y-44300D01*
X58600Y-44300D02*
X59000Y-44300D01*
X59000Y-44300D02*
X59000Y-44900D01*
X59000Y-44900D02*
X58600Y-44900D01*
G54D14*
X57390Y-41500D02*
X57390Y-44000D01*
X58374Y-41500D02*
X58374Y-44000D01*
X58374Y-44000D02*
X57390Y-44000D01*
X57390Y-41500D02*
X58374Y-41500D01*
X58374Y-42000D02*
X57390Y-42000D01*
G54D18*
X46367Y-44985D02*
X46357Y-44995D01*
X46329Y-45004D01*
X46310Y-45004D01*
X46282Y-44995D01*
X46263Y-44976D01*
X46254Y-44957D01*
X46245Y-44920D01*
X46245Y-44892D01*
X46254Y-44854D01*
X46263Y-44835D01*
X46282Y-44817D01*
X46310Y-44807D01*
X46329Y-44807D01*
X46357Y-44817D01*
X46367Y-44826D01*
X46554Y-45004D02*
X46442Y-45004D01*
X46498Y-45004D02*
X46498Y-44807D01*
X46479Y-44835D01*
X46460Y-44854D01*
X46442Y-44864D01*
X46273Y-44729D02*
X46160Y-44729D01*
X46217Y-44729D02*
X46217Y-44532D01*
X46198Y-44560D01*
X46179Y-44579D01*
X46160Y-44589D01*
X46395Y-44532D02*
X46414Y-44532D01*
X46432Y-44542D01*
X46442Y-44551D01*
X46451Y-44570D01*
X46460Y-44607D01*
X46460Y-44654D01*
X46451Y-44692D01*
X46442Y-44710D01*
X46432Y-44720D01*
X46414Y-44729D01*
X46395Y-44729D01*
X46376Y-44720D01*
X46367Y-44710D01*
X46357Y-44692D01*
X46348Y-44654D01*
X46348Y-44607D01*
X46357Y-44570D01*
X46367Y-44551D01*
X46376Y-44542D01*
X46395Y-44532D01*
X46629Y-44598D02*
X46629Y-44729D01*
X46545Y-44598D02*
X46545Y-44701D01*
X46554Y-44720D01*
X46573Y-44729D01*
X46601Y-44729D01*
X46620Y-44720D01*
X46629Y-44710D01*
X47967Y-44735D02*
X47957Y-44745D01*
X47929Y-44754D01*
X47910Y-44754D01*
X47882Y-44745D01*
X47863Y-44726D01*
X47854Y-44707D01*
X47845Y-44670D01*
X47845Y-44642D01*
X47854Y-44604D01*
X47863Y-44585D01*
X47882Y-44567D01*
X47910Y-44557D01*
X47929Y-44557D01*
X47957Y-44567D01*
X47967Y-44576D01*
X48042Y-44576D02*
X48051Y-44567D01*
X48070Y-44557D01*
X48117Y-44557D01*
X48136Y-44567D01*
X48145Y-44576D01*
X48154Y-44595D01*
X48154Y-44614D01*
X48145Y-44642D01*
X48032Y-44754D01*
X48154Y-44754D01*
X47760Y-44832D02*
X47779Y-44832D01*
X47798Y-44842D01*
X47807Y-44851D01*
X47817Y-44870D01*
X47826Y-44907D01*
X47826Y-44954D01*
X47817Y-44992D01*
X47807Y-45010D01*
X47798Y-45020D01*
X47779Y-45029D01*
X47760Y-45029D01*
X47742Y-45020D01*
X47732Y-45010D01*
X47723Y-44992D01*
X47713Y-44954D01*
X47713Y-44907D01*
X47723Y-44870D01*
X47732Y-44851D01*
X47742Y-44842D01*
X47760Y-44832D01*
X47910Y-45010D02*
X47920Y-45020D01*
X47910Y-45029D01*
X47901Y-45020D01*
X47910Y-45010D01*
X47910Y-45029D01*
X48107Y-45029D02*
X47995Y-45029D01*
X48051Y-45029D02*
X48051Y-44832D01*
X48032Y-44860D01*
X48014Y-44879D01*
X47995Y-44889D01*
X48276Y-44898D02*
X48276Y-45029D01*
X48192Y-44898D02*
X48192Y-45001D01*
X48201Y-45020D01*
X48220Y-45029D01*
X48248Y-45029D01*
X48267Y-45020D01*
X48276Y-45010D01*
G54D16*
X47511Y-40003D02*
X47235Y-40003D01*
X47235Y-39937D01*
X47248Y-39898D01*
X47275Y-39872D01*
X47301Y-39859D01*
X47354Y-39845D01*
X47393Y-39845D01*
X47446Y-39859D01*
X47472Y-39872D01*
X47498Y-39898D01*
X47511Y-39937D01*
X47511Y-40003D01*
X47511Y-39583D02*
X47511Y-39740D01*
X47511Y-39661D02*
X47235Y-39661D01*
X47275Y-39688D01*
X47301Y-39714D01*
X47314Y-39740D01*
X46926Y-38927D02*
X46926Y-38651D01*
X47084Y-38927D01*
X47084Y-38651D01*
X47216Y-38927D02*
X47216Y-38743D01*
X47216Y-38651D02*
X47202Y-38664D01*
X47216Y-38678D01*
X47229Y-38664D01*
X47216Y-38651D01*
X47216Y-38678D01*
X47465Y-38743D02*
X47465Y-38967D01*
X47452Y-38993D01*
X47439Y-39006D01*
X47413Y-39019D01*
X47373Y-39019D01*
X47347Y-39006D01*
X47465Y-38914D02*
X47439Y-38927D01*
X47386Y-38927D01*
X47360Y-38914D01*
X47347Y-38901D01*
X47334Y-38875D01*
X47334Y-38796D01*
X47347Y-38770D01*
X47360Y-38756D01*
X47386Y-38743D01*
X47439Y-38743D01*
X47465Y-38756D01*
X47597Y-38927D02*
X47597Y-38651D01*
X47715Y-38927D02*
X47715Y-38783D01*
X47702Y-38756D01*
X47676Y-38743D01*
X47636Y-38743D01*
X47610Y-38756D01*
X47597Y-38770D01*
X47807Y-38743D02*
X47912Y-38743D01*
X47846Y-38651D02*
X47846Y-38888D01*
X47860Y-38914D01*
X47886Y-38927D01*
X47912Y-38927D01*
G54D19*
X48864Y-39105D02*
X49321Y-39105D01*
X49093Y-39333D02*
X49093Y-38876D01*
G54D16*
X47511Y-41803D02*
X47235Y-41803D01*
X47235Y-41737D01*
X47248Y-41698D01*
X47275Y-41672D01*
X47301Y-41659D01*
X47354Y-41645D01*
X47393Y-41645D01*
X47446Y-41659D01*
X47472Y-41672D01*
X47498Y-41698D01*
X47511Y-41737D01*
X47511Y-41803D01*
X47262Y-41540D02*
X47248Y-41527D01*
X47235Y-41501D01*
X47235Y-41435D01*
X47248Y-41409D01*
X47262Y-41396D01*
X47288Y-41383D01*
X47314Y-41383D01*
X47354Y-41396D01*
X47511Y-41553D01*
X47511Y-41383D01*
X47097Y-40911D02*
X47097Y-40635D01*
X47163Y-40635D01*
X47202Y-40648D01*
X47229Y-40675D01*
X47242Y-40701D01*
X47255Y-40754D01*
X47255Y-40793D01*
X47242Y-40846D01*
X47229Y-40872D01*
X47202Y-40898D01*
X47163Y-40911D01*
X47097Y-40911D01*
X47492Y-40911D02*
X47492Y-40767D01*
X47478Y-40740D01*
X47452Y-40727D01*
X47400Y-40727D01*
X47373Y-40740D01*
X47492Y-40898D02*
X47465Y-40911D01*
X47400Y-40911D01*
X47373Y-40898D01*
X47360Y-40872D01*
X47360Y-40846D01*
X47373Y-40819D01*
X47400Y-40806D01*
X47465Y-40806D01*
X47492Y-40793D01*
X47597Y-40727D02*
X47662Y-40911D01*
X47728Y-40727D02*
X47662Y-40911D01*
X47636Y-40977D01*
X47623Y-40990D01*
X47597Y-41003D01*
G54D19*
X48864Y-40905D02*
X49321Y-40905D01*
X49093Y-41133D02*
X49093Y-40676D01*
G54D16*
X47511Y-43603D02*
X47235Y-43603D01*
X47235Y-43537D01*
X47248Y-43498D01*
X47275Y-43472D01*
X47301Y-43459D01*
X47354Y-43445D01*
X47393Y-43445D01*
X47446Y-43459D01*
X47472Y-43472D01*
X47498Y-43498D01*
X47511Y-43537D01*
X47511Y-43603D01*
X47235Y-43353D02*
X47235Y-43183D01*
X47340Y-43275D01*
X47340Y-43235D01*
X47354Y-43209D01*
X47367Y-43196D01*
X47393Y-43183D01*
X47459Y-43183D01*
X47485Y-43196D01*
X47498Y-43209D01*
X47511Y-43235D01*
X47511Y-43314D01*
X47498Y-43340D01*
X47485Y-43353D01*
X46874Y-42685D02*
X46861Y-42698D01*
X46821Y-42711D01*
X46795Y-42711D01*
X46756Y-42698D01*
X46729Y-42672D01*
X46716Y-42646D01*
X46703Y-42593D01*
X46703Y-42554D01*
X46716Y-42501D01*
X46729Y-42475D01*
X46756Y-42448D01*
X46795Y-42435D01*
X46821Y-42435D01*
X46861Y-42448D01*
X46874Y-42462D01*
X47032Y-42711D02*
X47005Y-42698D01*
X46992Y-42685D01*
X46979Y-42659D01*
X46979Y-42580D01*
X46992Y-42554D01*
X47005Y-42540D01*
X47032Y-42527D01*
X47071Y-42527D01*
X47097Y-42540D01*
X47110Y-42554D01*
X47124Y-42580D01*
X47124Y-42659D01*
X47110Y-42685D01*
X47097Y-42698D01*
X47071Y-42711D01*
X47032Y-42711D01*
X47242Y-42527D02*
X47242Y-42711D01*
X47242Y-42554D02*
X47255Y-42540D01*
X47281Y-42527D01*
X47321Y-42527D01*
X47347Y-42540D01*
X47360Y-42567D01*
X47360Y-42711D01*
X47452Y-42527D02*
X47557Y-42527D01*
X47492Y-42435D02*
X47492Y-42672D01*
X47505Y-42698D01*
X47531Y-42711D01*
X47557Y-42711D01*
X47649Y-42711D02*
X47649Y-42527D01*
X47649Y-42580D02*
X47662Y-42554D01*
X47676Y-42540D01*
X47702Y-42527D01*
X47728Y-42527D01*
X47860Y-42711D02*
X47833Y-42698D01*
X47820Y-42685D01*
X47807Y-42659D01*
X47807Y-42580D01*
X47820Y-42554D01*
X47833Y-42540D01*
X47860Y-42527D01*
X47899Y-42527D01*
X47925Y-42540D01*
X47938Y-42554D01*
X47952Y-42580D01*
X47952Y-42659D01*
X47938Y-42685D01*
X47925Y-42698D01*
X47899Y-42711D01*
X47860Y-42711D01*
X48109Y-42711D02*
X48083Y-42698D01*
X48070Y-42672D01*
X48070Y-42435D01*
G54D19*
X48864Y-42705D02*
X49321Y-42705D01*
X49093Y-42933D02*
X49093Y-42476D01*
G54D17*
X52334Y-46054D02*
X52334Y-46221D01*
X52622Y-46221D02*
X52072Y-46221D01*
X52072Y-45983D01*
X52072Y-45792D02*
X52517Y-45792D01*
X52570Y-45769D01*
X52596Y-45745D01*
X52622Y-45697D01*
X52622Y-45602D01*
X52596Y-45554D01*
X52570Y-45530D01*
X52517Y-45507D01*
X52072Y-45507D01*
X52596Y-45292D02*
X52622Y-45221D01*
X52622Y-45102D01*
X52596Y-45054D01*
X52570Y-45030D01*
X52517Y-45007D01*
X52465Y-45007D01*
X52413Y-45030D01*
X52386Y-45054D01*
X52360Y-45102D01*
X52334Y-45197D01*
X52308Y-45245D01*
X52282Y-45269D01*
X52229Y-45292D01*
X52177Y-45292D01*
X52125Y-45269D01*
X52098Y-45245D01*
X52072Y-45197D01*
X52072Y-45078D01*
X52098Y-45007D01*
X52334Y-44792D02*
X52334Y-44626D01*
X52622Y-44554D02*
X52622Y-44792D01*
X52072Y-44792D01*
X52072Y-44554D01*
X48611Y-47245D02*
X48211Y-47245D01*
X48211Y-47092D01*
X48230Y-47054D01*
X48250Y-47035D01*
X48288Y-47016D01*
X48345Y-47016D01*
X48383Y-47035D01*
X48402Y-47054D01*
X48421Y-47092D01*
X48421Y-47245D01*
X48611Y-46635D02*
X48611Y-46864D01*
X48611Y-46749D02*
X48211Y-46749D01*
X48269Y-46788D01*
X48307Y-46826D01*
X48326Y-46864D01*
G54D15*
X58378Y-46771D02*
X58378Y-46471D01*
X58492Y-46471D01*
X58521Y-46485D01*
X58535Y-46500D01*
X58550Y-46528D01*
X58550Y-46571D01*
X58535Y-46600D01*
X58521Y-46614D01*
X58492Y-46628D01*
X58378Y-46628D01*
X58664Y-46500D02*
X58678Y-46485D01*
X58707Y-46471D01*
X58778Y-46471D01*
X58807Y-46485D01*
X58821Y-46500D01*
X58835Y-46528D01*
X58835Y-46557D01*
X58821Y-46600D01*
X58650Y-46771D01*
X58835Y-46771D01*
X58378Y-37171D02*
X58378Y-36871D01*
X58492Y-36871D01*
X58521Y-36885D01*
X58535Y-36900D01*
X58550Y-36928D01*
X58550Y-36971D01*
X58535Y-37000D01*
X58521Y-37014D01*
X58492Y-37028D01*
X58378Y-37028D01*
X58650Y-36871D02*
X58835Y-36871D01*
X58735Y-36985D01*
X58778Y-36985D01*
X58807Y-37000D01*
X58821Y-37014D01*
X58835Y-37042D01*
X58835Y-37114D01*
X58821Y-37142D01*
X58807Y-37157D01*
X58778Y-37171D01*
X58692Y-37171D01*
X58664Y-37157D01*
X58650Y-37142D01*
X59971Y-43021D02*
X59671Y-43021D01*
X59671Y-42907D01*
X59685Y-42878D01*
X59700Y-42864D01*
X59728Y-42850D01*
X59771Y-42850D01*
X59800Y-42864D01*
X59814Y-42878D01*
X59828Y-42907D01*
X59828Y-43021D01*
X59771Y-42592D02*
X59971Y-42592D01*
X59657Y-42664D02*
X59871Y-42735D01*
X59871Y-42550D01*
X59911Y-46395D02*
X59511Y-46395D01*
X59511Y-46242D01*
X59530Y-46204D01*
X59550Y-46185D01*
X59588Y-46166D01*
X59645Y-46166D01*
X59683Y-46185D01*
X59702Y-46204D01*
X59721Y-46242D01*
X59721Y-46395D01*
X59511Y-45804D02*
X59511Y-45995D01*
X59702Y-46014D01*
X59683Y-45995D01*
X59664Y-45957D01*
X59664Y-45861D01*
X59683Y-45823D01*
X59702Y-45804D01*
X59740Y-45785D01*
X59835Y-45785D01*
X59873Y-45804D01*
X59892Y-45823D01*
X59911Y-45861D01*
X59911Y-45957D01*
X59892Y-45995D01*
X59873Y-46014D01*
G54D18*
X50417Y-37604D02*
X50351Y-37510D01*
X50304Y-37604D02*
X50304Y-37407D01*
X50379Y-37407D01*
X50398Y-37417D01*
X50407Y-37426D01*
X50417Y-37445D01*
X50417Y-37473D01*
X50407Y-37492D01*
X50398Y-37501D01*
X50379Y-37510D01*
X50304Y-37510D01*
X50604Y-37604D02*
X50492Y-37604D01*
X50548Y-37604D02*
X50548Y-37407D01*
X50529Y-37435D01*
X50510Y-37454D01*
X50492Y-37464D01*
X50440Y-37132D02*
X50459Y-37132D01*
X50478Y-37142D01*
X50487Y-37151D01*
X50496Y-37170D01*
X50506Y-37207D01*
X50506Y-37254D01*
X50496Y-37292D01*
X50487Y-37310D01*
X50478Y-37320D01*
X50459Y-37329D01*
X50440Y-37329D01*
X50421Y-37320D01*
X50412Y-37310D01*
X50403Y-37292D01*
X50393Y-37254D01*
X50393Y-37207D01*
X50403Y-37170D01*
X50412Y-37151D01*
X50421Y-37142D01*
X50440Y-37132D01*
X50417Y-38604D02*
X50351Y-38510D01*
X50304Y-38604D02*
X50304Y-38407D01*
X50379Y-38407D01*
X50398Y-38417D01*
X50407Y-38426D01*
X50417Y-38445D01*
X50417Y-38473D01*
X50407Y-38492D01*
X50398Y-38501D01*
X50379Y-38510D01*
X50304Y-38510D01*
X50492Y-38426D02*
X50501Y-38417D01*
X50520Y-38407D01*
X50567Y-38407D01*
X50586Y-38417D01*
X50595Y-38426D01*
X50604Y-38445D01*
X50604Y-38464D01*
X50595Y-38492D01*
X50482Y-38604D01*
X50604Y-38604D01*
X50440Y-38132D02*
X50459Y-38132D01*
X50478Y-38142D01*
X50487Y-38151D01*
X50496Y-38170D01*
X50506Y-38207D01*
X50506Y-38254D01*
X50496Y-38292D01*
X50487Y-38310D01*
X50478Y-38320D01*
X50459Y-38329D01*
X50440Y-38329D01*
X50421Y-38320D01*
X50412Y-38310D01*
X50403Y-38292D01*
X50393Y-38254D01*
X50393Y-38207D01*
X50403Y-38170D01*
X50412Y-38151D01*
X50421Y-38142D01*
X50440Y-38132D01*
X51904Y-38182D02*
X51810Y-38248D01*
X51904Y-38295D02*
X51707Y-38295D01*
X51707Y-38220D01*
X51717Y-38201D01*
X51726Y-38192D01*
X51745Y-38182D01*
X51773Y-38182D01*
X51792Y-38192D01*
X51801Y-38201D01*
X51810Y-38220D01*
X51810Y-38295D01*
X51707Y-38117D02*
X51707Y-37995D01*
X51782Y-38060D01*
X51782Y-38032D01*
X51792Y-38013D01*
X51801Y-38004D01*
X51820Y-37995D01*
X51867Y-37995D01*
X51885Y-38004D01*
X51895Y-38013D01*
X51904Y-38032D01*
X51904Y-38089D01*
X51895Y-38107D01*
X51885Y-38117D01*
X51432Y-38159D02*
X51432Y-38140D01*
X51442Y-38121D01*
X51451Y-38112D01*
X51470Y-38103D01*
X51507Y-38093D01*
X51554Y-38093D01*
X51592Y-38103D01*
X51610Y-38112D01*
X51620Y-38121D01*
X51629Y-38140D01*
X51629Y-38159D01*
X51620Y-38178D01*
X51610Y-38187D01*
X51592Y-38196D01*
X51554Y-38206D01*
X51507Y-38206D01*
X51470Y-38196D01*
X51451Y-38187D01*
X51442Y-38178D01*
X51432Y-38159D01*
X49917Y-44354D02*
X49851Y-44260D01*
X49804Y-44354D02*
X49804Y-44157D01*
X49879Y-44157D01*
X49898Y-44167D01*
X49907Y-44176D01*
X49917Y-44195D01*
X49917Y-44223D01*
X49907Y-44242D01*
X49898Y-44251D01*
X49879Y-44260D01*
X49804Y-44260D01*
X50086Y-44223D02*
X50086Y-44354D01*
X50039Y-44148D02*
X49992Y-44289D01*
X50114Y-44289D01*
X49940Y-44432D02*
X49959Y-44432D01*
X49978Y-44442D01*
X49987Y-44451D01*
X49996Y-44470D01*
X50006Y-44507D01*
X50006Y-44554D01*
X49996Y-44592D01*
X49987Y-44610D01*
X49978Y-44620D01*
X49959Y-44629D01*
X49940Y-44629D01*
X49921Y-44620D01*
X49912Y-44610D01*
X49903Y-44592D01*
X49893Y-44554D01*
X49893Y-44507D01*
X49903Y-44470D01*
X49912Y-44451D01*
X49921Y-44442D01*
X49940Y-44432D01*
X49917Y-43354D02*
X49851Y-43260D01*
X49804Y-43354D02*
X49804Y-43157D01*
X49879Y-43157D01*
X49898Y-43167D01*
X49907Y-43176D01*
X49917Y-43195D01*
X49917Y-43223D01*
X49907Y-43242D01*
X49898Y-43251D01*
X49879Y-43260D01*
X49804Y-43260D01*
X50095Y-43157D02*
X50001Y-43157D01*
X49992Y-43251D01*
X50001Y-43242D01*
X50020Y-43232D01*
X50067Y-43232D01*
X50086Y-43242D01*
X50095Y-43251D01*
X50104Y-43270D01*
X50104Y-43317D01*
X50095Y-43335D01*
X50086Y-43345D01*
X50067Y-43354D01*
X50020Y-43354D01*
X50001Y-43345D01*
X49992Y-43335D01*
X49940Y-43432D02*
X49959Y-43432D01*
X49978Y-43442D01*
X49987Y-43451D01*
X49996Y-43470D01*
X50006Y-43507D01*
X50006Y-43554D01*
X49996Y-43592D01*
X49987Y-43610D01*
X49978Y-43620D01*
X49959Y-43629D01*
X49940Y-43629D01*
X49921Y-43620D01*
X49912Y-43610D01*
X49903Y-43592D01*
X49893Y-43554D01*
X49893Y-43507D01*
X49903Y-43470D01*
X49912Y-43451D01*
X49921Y-43442D01*
X49940Y-43432D01*
X51404Y-43682D02*
X51310Y-43748D01*
X51404Y-43795D02*
X51207Y-43795D01*
X51207Y-43720D01*
X51217Y-43701D01*
X51226Y-43692D01*
X51245Y-43682D01*
X51273Y-43682D01*
X51292Y-43692D01*
X51301Y-43701D01*
X51310Y-43720D01*
X51310Y-43795D01*
X51207Y-43513D02*
X51207Y-43551D01*
X51217Y-43570D01*
X51226Y-43579D01*
X51254Y-43598D01*
X51292Y-43607D01*
X51367Y-43607D01*
X51385Y-43598D01*
X51395Y-43589D01*
X51404Y-43570D01*
X51404Y-43532D01*
X51395Y-43513D01*
X51385Y-43504D01*
X51367Y-43495D01*
X51320Y-43495D01*
X51301Y-43504D01*
X51292Y-43513D01*
X51282Y-43532D01*
X51282Y-43570D01*
X51292Y-43589D01*
X51301Y-43598D01*
X51320Y-43607D01*
X50932Y-43659D02*
X50932Y-43640D01*
X50942Y-43621D01*
X50951Y-43612D01*
X50970Y-43603D01*
X51007Y-43593D01*
X51054Y-43593D01*
X51092Y-43603D01*
X51110Y-43612D01*
X51120Y-43621D01*
X51129Y-43640D01*
X51129Y-43659D01*
X51120Y-43678D01*
X51110Y-43687D01*
X51092Y-43696D01*
X51054Y-43706D01*
X51007Y-43706D01*
X50970Y-43696D01*
X50951Y-43687D01*
X50942Y-43678D01*
X50932Y-43659D01*
X53704Y-43282D02*
X53610Y-43348D01*
X53704Y-43395D02*
X53507Y-43395D01*
X53507Y-43320D01*
X53517Y-43301D01*
X53526Y-43292D01*
X53545Y-43282D01*
X53573Y-43282D01*
X53592Y-43292D01*
X53601Y-43301D01*
X53610Y-43320D01*
X53610Y-43395D01*
X53507Y-43217D02*
X53507Y-43085D01*
X53704Y-43170D01*
X53232Y-43259D02*
X53232Y-43240D01*
X53242Y-43221D01*
X53251Y-43212D01*
X53270Y-43203D01*
X53307Y-43193D01*
X53354Y-43193D01*
X53392Y-43203D01*
X53410Y-43212D01*
X53420Y-43221D01*
X53429Y-43240D01*
X53429Y-43259D01*
X53420Y-43278D01*
X53410Y-43287D01*
X53392Y-43296D01*
X53354Y-43306D01*
X53307Y-43306D01*
X53270Y-43296D01*
X53251Y-43287D01*
X53242Y-43278D01*
X53232Y-43259D01*
X55704Y-41532D02*
X55610Y-41598D01*
X55704Y-41645D02*
X55507Y-41645D01*
X55507Y-41570D01*
X55517Y-41551D01*
X55526Y-41542D01*
X55545Y-41532D01*
X55573Y-41532D01*
X55592Y-41542D01*
X55601Y-41551D01*
X55610Y-41570D01*
X55610Y-41645D01*
X55592Y-41420D02*
X55582Y-41439D01*
X55573Y-41448D01*
X55554Y-41457D01*
X55545Y-41457D01*
X55526Y-41448D01*
X55517Y-41439D01*
X55507Y-41420D01*
X55507Y-41382D01*
X55517Y-41363D01*
X55526Y-41354D01*
X55545Y-41345D01*
X55554Y-41345D01*
X55573Y-41354D01*
X55582Y-41363D01*
X55592Y-41382D01*
X55592Y-41420D01*
X55601Y-41439D01*
X55610Y-41448D01*
X55629Y-41457D01*
X55667Y-41457D01*
X55685Y-41448D01*
X55695Y-41439D01*
X55704Y-41420D01*
X55704Y-41382D01*
X55695Y-41363D01*
X55685Y-41354D01*
X55667Y-41345D01*
X55629Y-41345D01*
X55610Y-41354D01*
X55601Y-41363D01*
X55592Y-41382D01*
X55232Y-41509D02*
X55232Y-41490D01*
X55242Y-41471D01*
X55251Y-41462D01*
X55270Y-41453D01*
X55307Y-41443D01*
X55354Y-41443D01*
X55392Y-41453D01*
X55410Y-41462D01*
X55420Y-41471D01*
X55429Y-41490D01*
X55429Y-41509D01*
X55420Y-41528D01*
X55410Y-41537D01*
X55392Y-41546D01*
X55354Y-41556D01*
X55307Y-41556D01*
X55270Y-41546D01*
X55251Y-41537D01*
X55242Y-41528D01*
X55232Y-41509D01*
G54D16*
X45976Y-37721D02*
X45861Y-37721D01*
X45919Y-37721D02*
X45919Y-37421D01*
X45900Y-37464D01*
X45880Y-37492D01*
X45861Y-37507D01*
X46061Y-37721D02*
X46061Y-37421D01*
X46080Y-37607D02*
X46138Y-37721D01*
X46138Y-37521D02*
X46061Y-37635D01*
G54D20*
X54621Y-42228D02*
X54864Y-42228D01*
X54892Y-42214D01*
X54907Y-42200D01*
X54921Y-42171D01*
X54921Y-42114D01*
X54907Y-42085D01*
X54892Y-42071D01*
X54864Y-42057D01*
X54621Y-42057D01*
X54650Y-41928D02*
X54635Y-41914D01*
X54621Y-41885D01*
X54621Y-41814D01*
X54635Y-41785D01*
X54650Y-41771D01*
X54678Y-41757D01*
X54707Y-41757D01*
X54750Y-41771D01*
X54921Y-41942D01*
X54921Y-41757D01*
X53288Y-41579D02*
X53288Y-41382D01*
X53354Y-41523D01*
X53419Y-41382D01*
X53419Y-41579D01*
X53513Y-41579D02*
X53513Y-41382D01*
X53560Y-41382D01*
X53588Y-41392D01*
X53607Y-41410D01*
X53616Y-41429D01*
X53626Y-41467D01*
X53626Y-41495D01*
X53616Y-41532D01*
X53607Y-41551D01*
X53588Y-41570D01*
X53560Y-41579D01*
X53513Y-41579D01*
X53823Y-41560D02*
X53813Y-41570D01*
X53785Y-41579D01*
X53767Y-41579D01*
X53738Y-41570D01*
X53720Y-41551D01*
X53710Y-41532D01*
X53701Y-41495D01*
X53701Y-41467D01*
X53710Y-41429D01*
X53720Y-41410D01*
X53738Y-41392D01*
X53767Y-41382D01*
X53785Y-41382D01*
X53813Y-41392D01*
X53823Y-41401D01*
X53888Y-41382D02*
X54010Y-41382D01*
X53945Y-41457D01*
X53973Y-41457D01*
X53992Y-41467D01*
X54001Y-41476D01*
X54010Y-41495D01*
X54010Y-41542D01*
X54001Y-41560D01*
X53992Y-41570D01*
X53973Y-41579D01*
X53917Y-41579D01*
X53898Y-41570D01*
X53888Y-41560D01*
X54198Y-41579D02*
X54085Y-41579D01*
X54142Y-41579D02*
X54142Y-41382D01*
X54123Y-41410D01*
X54104Y-41429D01*
X54085Y-41439D01*
X54320Y-41382D02*
X54339Y-41382D01*
X54358Y-41392D01*
X54367Y-41401D01*
X54376Y-41420D01*
X54386Y-41457D01*
X54386Y-41504D01*
X54376Y-41542D01*
X54367Y-41560D01*
X54358Y-41570D01*
X54339Y-41579D01*
X54320Y-41579D01*
X54301Y-41570D01*
X54292Y-41560D01*
X54282Y-41542D01*
X54273Y-41504D01*
X54273Y-41457D01*
X54282Y-41420D01*
X54292Y-41401D01*
X54301Y-41392D01*
X54320Y-41382D01*
X54564Y-41382D02*
X54470Y-41382D01*
X54461Y-41476D01*
X54470Y-41467D01*
X54489Y-41457D01*
X54536Y-41457D01*
X54555Y-41467D01*
X54564Y-41476D01*
X54573Y-41495D01*
X54573Y-41542D01*
X54564Y-41560D01*
X54555Y-41570D01*
X54536Y-41579D01*
X54489Y-41579D01*
X54470Y-41570D01*
X54461Y-41560D01*
X54658Y-41579D02*
X54658Y-41382D01*
X54705Y-41382D01*
X54733Y-41392D01*
X54752Y-41410D01*
X54761Y-41429D01*
X54770Y-41467D01*
X54770Y-41495D01*
X54761Y-41532D01*
X54752Y-41551D01*
X54733Y-41570D01*
X54705Y-41579D01*
X54658Y-41579D01*
G54D13*
X54838Y-45842D02*
X54838Y-46328D01*
X54867Y-46385D01*
X54896Y-46414D01*
X54953Y-46442D01*
X55067Y-46442D01*
X55124Y-46414D01*
X55153Y-46385D01*
X55181Y-46328D01*
X55181Y-45842D01*
X55410Y-45842D02*
X55781Y-45842D01*
X55581Y-46071D01*
X55667Y-46071D01*
X55724Y-46100D01*
X55753Y-46128D01*
X55781Y-46185D01*
X55781Y-46328D01*
X55753Y-46385D01*
X55724Y-46414D01*
X55667Y-46442D01*
X55496Y-46442D01*
X55438Y-46414D01*
X55410Y-46385D01*
X54838Y-38442D02*
X54838Y-38928D01*
X54867Y-38985D01*
X54896Y-39014D01*
X54953Y-39042D01*
X55067Y-39042D01*
X55124Y-39014D01*
X55153Y-38985D01*
X55181Y-38928D01*
X55181Y-38442D01*
X55724Y-38642D02*
X55724Y-39042D01*
X55581Y-38414D02*
X55438Y-38842D01*
X55810Y-38842D01*
G54D16*
X50457Y-40161D02*
X50457Y-40485D01*
X50478Y-40523D01*
X50500Y-40542D01*
X50542Y-40561D01*
X50628Y-40561D01*
X50671Y-40542D01*
X50692Y-40523D01*
X50714Y-40485D01*
X50714Y-40161D01*
X51164Y-40561D02*
X50907Y-40561D01*
X51035Y-40561D02*
X51035Y-40161D01*
X50992Y-40219D01*
X50950Y-40257D01*
X50907Y-40276D01*
X49504Y-41142D02*
X49561Y-41161D01*
X49657Y-41161D01*
X49695Y-41142D01*
X49714Y-41123D01*
X49733Y-41085D01*
X49733Y-41047D01*
X49714Y-41009D01*
X49695Y-40990D01*
X49657Y-40971D01*
X49580Y-40952D01*
X49542Y-40933D01*
X49523Y-40914D01*
X49504Y-40876D01*
X49504Y-40838D01*
X49523Y-40800D01*
X49542Y-40780D01*
X49580Y-40761D01*
X49676Y-40761D01*
X49733Y-40780D01*
X49904Y-41161D02*
X49904Y-40761D01*
X50133Y-41161D01*
X50133Y-40761D01*
X50285Y-40761D02*
X50552Y-40761D01*
X50380Y-41161D01*
X50876Y-40895D02*
X50876Y-41161D01*
X50780Y-40742D02*
X50685Y-41028D01*
X50933Y-41028D01*
X51085Y-41161D02*
X51085Y-40761D01*
X51085Y-40952D02*
X51314Y-40952D01*
X51314Y-41161D02*
X51314Y-40761D01*
X51733Y-41123D02*
X51714Y-41142D01*
X51657Y-41161D01*
X51619Y-41161D01*
X51561Y-41142D01*
X51523Y-41104D01*
X51504Y-41066D01*
X51485Y-40990D01*
X51485Y-40933D01*
X51504Y-40857D01*
X51523Y-40819D01*
X51561Y-40780D01*
X51619Y-40761D01*
X51657Y-40761D01*
X51714Y-40780D01*
X51733Y-40800D01*
X51980Y-40761D02*
X52019Y-40761D01*
X52057Y-40780D01*
X52076Y-40800D01*
X52095Y-40838D01*
X52114Y-40914D01*
X52114Y-41009D01*
X52095Y-41085D01*
X52076Y-41123D01*
X52057Y-41142D01*
X52019Y-41161D01*
X51980Y-41161D01*
X51942Y-41142D01*
X51923Y-41123D01*
X51904Y-41085D01*
X51885Y-41009D01*
X51885Y-40914D01*
X51904Y-40838D01*
X51923Y-40800D01*
X51942Y-40780D01*
X51980Y-40761D01*
X52457Y-40895D02*
X52457Y-41161D01*
X52361Y-40742D02*
X52266Y-41028D01*
X52514Y-41028D01*
G54D18*
X55567Y-43754D02*
X55473Y-43754D01*
X55473Y-43557D01*
X55736Y-43754D02*
X55623Y-43754D01*
X55679Y-43754D02*
X55679Y-43557D01*
X55660Y-43585D01*
X55642Y-43604D01*
X55623Y-43614D01*
X54919Y-44400D02*
X54919Y-44203D01*
X55013Y-44400D02*
X55013Y-44203D01*
X55126Y-44400D01*
X55126Y-44203D01*
X55220Y-44400D02*
X55220Y-44203D01*
X55266Y-44203D01*
X55295Y-44213D01*
X55313Y-44232D01*
X55323Y-44250D01*
X55332Y-44288D01*
X55332Y-44316D01*
X55323Y-44354D01*
X55313Y-44372D01*
X55295Y-44391D01*
X55266Y-44400D01*
X55220Y-44400D01*
X55417Y-44203D02*
X55417Y-44363D01*
X55426Y-44382D01*
X55435Y-44391D01*
X55454Y-44400D01*
X55492Y-44400D01*
X55510Y-44391D01*
X55520Y-44382D01*
X55529Y-44363D01*
X55529Y-44203D01*
X55736Y-44382D02*
X55726Y-44391D01*
X55698Y-44400D01*
X55679Y-44400D01*
X55651Y-44391D01*
X55632Y-44372D01*
X55623Y-44354D01*
X55614Y-44316D01*
X55614Y-44288D01*
X55623Y-44250D01*
X55632Y-44232D01*
X55651Y-44213D01*
X55679Y-44203D01*
X55698Y-44203D01*
X55726Y-44213D01*
X55736Y-44222D01*
X55792Y-44203D02*
X55904Y-44203D01*
X55848Y-44400D02*
X55848Y-44203D01*
X56008Y-44203D02*
X56045Y-44203D01*
X56064Y-44213D01*
X56083Y-44232D01*
X56092Y-44269D01*
X56092Y-44335D01*
X56083Y-44372D01*
X56064Y-44391D01*
X56045Y-44400D01*
X56008Y-44400D01*
X55989Y-44391D01*
X55970Y-44372D01*
X55961Y-44335D01*
X55961Y-44269D01*
X55970Y-44232D01*
X55989Y-44213D01*
X56008Y-44203D01*
X56289Y-44400D02*
X56223Y-44307D01*
X56176Y-44400D02*
X56176Y-44203D01*
X56251Y-44203D01*
X56270Y-44213D01*
X56280Y-44222D01*
X56289Y-44241D01*
X56289Y-44269D01*
X56280Y-44288D01*
X56270Y-44297D01*
X56251Y-44307D01*
X56176Y-44307D01*
X55454Y-42754D02*
X55454Y-42557D01*
X55501Y-42557D01*
X55529Y-42567D01*
X55548Y-42585D01*
X55557Y-42604D01*
X55567Y-42642D01*
X55567Y-42670D01*
X55557Y-42707D01*
X55548Y-42726D01*
X55529Y-42745D01*
X55501Y-42754D01*
X55454Y-42754D01*
X55736Y-42623D02*
X55736Y-42754D01*
X55689Y-42548D02*
X55642Y-42689D01*
X55764Y-42689D01*
X54915Y-43384D02*
X54915Y-43187D01*
X54962Y-43187D01*
X54990Y-43196D01*
X55009Y-43215D01*
X55018Y-43233D01*
X55027Y-43271D01*
X55027Y-43299D01*
X55018Y-43337D01*
X55009Y-43355D01*
X54990Y-43374D01*
X54962Y-43384D01*
X54915Y-43384D01*
X55112Y-43384D02*
X55112Y-43187D01*
X55243Y-43187D02*
X55281Y-43187D01*
X55299Y-43196D01*
X55318Y-43215D01*
X55327Y-43252D01*
X55327Y-43318D01*
X55318Y-43355D01*
X55299Y-43374D01*
X55281Y-43384D01*
X55243Y-43384D01*
X55224Y-43374D01*
X55206Y-43355D01*
X55196Y-43318D01*
X55196Y-43252D01*
X55206Y-43215D01*
X55224Y-43196D01*
X55243Y-43187D01*
X55412Y-43384D02*
X55412Y-43187D01*
X55459Y-43187D01*
X55487Y-43196D01*
X55506Y-43215D01*
X55515Y-43233D01*
X55524Y-43271D01*
X55524Y-43299D01*
X55515Y-43337D01*
X55506Y-43355D01*
X55487Y-43374D01*
X55459Y-43384D01*
X55412Y-43384D01*
X55609Y-43280D02*
X55675Y-43280D01*
X55703Y-43384D02*
X55609Y-43384D01*
X55609Y-43187D01*
X55703Y-43187D01*
X55778Y-43374D02*
X55806Y-43384D01*
X55853Y-43384D01*
X55872Y-43374D01*
X55881Y-43365D01*
X55890Y-43346D01*
X55890Y-43327D01*
X55881Y-43309D01*
X55872Y-43299D01*
X55853Y-43290D01*
X55815Y-43280D01*
X55797Y-43271D01*
X55787Y-43262D01*
X55778Y-43243D01*
X55778Y-43224D01*
X55787Y-43205D01*
X55797Y-43196D01*
X55815Y-43187D01*
X55862Y-43187D01*
X55890Y-43196D01*
X56087Y-43365D02*
X56078Y-43374D01*
X56050Y-43384D01*
X56031Y-43384D01*
X56003Y-43374D01*
X55984Y-43355D01*
X55975Y-43337D01*
X55965Y-43299D01*
X55965Y-43271D01*
X55975Y-43233D01*
X55984Y-43215D01*
X56003Y-43196D01*
X56031Y-43187D01*
X56050Y-43187D01*
X56078Y-43196D01*
X56087Y-43205D01*
X56172Y-43384D02*
X56172Y-43187D01*
X56172Y-43280D02*
X56284Y-43280D01*
X56284Y-43384D02*
X56284Y-43187D01*
X58167Y-40535D02*
X58157Y-40545D01*
X58129Y-40554D01*
X58110Y-40554D01*
X58082Y-40545D01*
X58063Y-40526D01*
X58054Y-40507D01*
X58045Y-40470D01*
X58045Y-40442D01*
X58054Y-40404D01*
X58063Y-40385D01*
X58082Y-40367D01*
X58110Y-40357D01*
X58129Y-40357D01*
X58157Y-40367D01*
X58167Y-40376D01*
X58232Y-40357D02*
X58354Y-40357D01*
X58289Y-40432D01*
X58317Y-40432D01*
X58336Y-40442D01*
X58345Y-40451D01*
X58354Y-40470D01*
X58354Y-40517D01*
X58345Y-40535D01*
X58336Y-40545D01*
X58317Y-40554D01*
X58260Y-40554D01*
X58242Y-40545D01*
X58232Y-40535D01*
X58073Y-40079D02*
X57960Y-40079D01*
X58017Y-40079D02*
X58017Y-39882D01*
X57998Y-39910D01*
X57979Y-39929D01*
X57960Y-39939D01*
X58195Y-39882D02*
X58214Y-39882D01*
X58232Y-39892D01*
X58242Y-39901D01*
X58251Y-39920D01*
X58260Y-39957D01*
X58260Y-40004D01*
X58251Y-40042D01*
X58242Y-40060D01*
X58232Y-40070D01*
X58214Y-40079D01*
X58195Y-40079D01*
X58176Y-40070D01*
X58167Y-40060D01*
X58157Y-40042D01*
X58148Y-40004D01*
X58148Y-39957D01*
X58157Y-39920D01*
X58167Y-39901D01*
X58176Y-39892D01*
X58195Y-39882D01*
X58429Y-39948D02*
X58429Y-40079D01*
X58345Y-39948D02*
X58345Y-40051D01*
X58354Y-40070D01*
X58373Y-40079D01*
X58401Y-40079D01*
X58420Y-40070D01*
X58429Y-40060D01*
X58367Y-44535D02*
X58357Y-44545D01*
X58329Y-44554D01*
X58310Y-44554D01*
X58282Y-44545D01*
X58263Y-44526D01*
X58254Y-44507D01*
X58245Y-44470D01*
X58245Y-44442D01*
X58254Y-44404D01*
X58263Y-44385D01*
X58282Y-44367D01*
X58310Y-44357D01*
X58329Y-44357D01*
X58357Y-44367D01*
X58367Y-44376D01*
X58536Y-44423D02*
X58536Y-44554D01*
X58489Y-44348D02*
X58442Y-44489D01*
X58564Y-44489D01*
X58673Y-44079D02*
X58560Y-44079D01*
X58617Y-44079D02*
X58617Y-43882D01*
X58598Y-43910D01*
X58579Y-43929D01*
X58560Y-43939D01*
X58795Y-43882D02*
X58814Y-43882D01*
X58832Y-43892D01*
X58842Y-43901D01*
X58851Y-43920D01*
X58860Y-43957D01*
X58860Y-44004D01*
X58851Y-44042D01*
X58842Y-44060D01*
X58832Y-44070D01*
X58814Y-44079D01*
X58795Y-44079D01*
X58776Y-44070D01*
X58767Y-44060D01*
X58757Y-44042D01*
X58748Y-44004D01*
X58748Y-43957D01*
X58757Y-43920D01*
X58767Y-43901D01*
X58776Y-43892D01*
X58795Y-43882D01*
X59029Y-43948D02*
X59029Y-44079D01*
X58945Y-43948D02*
X58945Y-44051D01*
X58954Y-44070D01*
X58973Y-44079D01*
X59001Y-44079D01*
X59020Y-44070D01*
X59029Y-44060D01*
G54D21*
X57565Y-43299D02*
X57884Y-43299D01*
X57921Y-43281D01*
X57940Y-43262D01*
X57959Y-43224D01*
X57959Y-43149D01*
X57940Y-43112D01*
X57921Y-43093D01*
X57884Y-43074D01*
X57565Y-43074D01*
X57565Y-42700D02*
X57565Y-42887D01*
X57753Y-42906D01*
X57734Y-42887D01*
X57715Y-42850D01*
X57715Y-42756D01*
X57734Y-42718D01*
X57753Y-42700D01*
X57790Y-42681D01*
X57884Y-42681D01*
X57921Y-42700D01*
X57940Y-42718D01*
X57959Y-42756D01*
X57959Y-42850D01*
X57940Y-42887D01*
X57921Y-42906D01*
M02*
